<svg id="Group_122" data-name="Group 122" xmlns="http://www.w3.org/2000/svg" width="16" height="16" viewBox="0 0 16 16">
  <path id="Path_528" data-name="Path 528" d="M-449.564,782.829h1.25v1.251c.28,0,.54-.008.8,0a1.85,1.85,0,0,1,1.446.744,2.156,2.156,0,0,1,.38.91v11.437a.48.48,0,0,0-.026.073,1.865,1.865,0,0,1-1.9,1.583q-6.077,0-12.153,0a1.87,1.87,0,0,1-1.921-1.927q0-5.444,0-10.888a2.1,2.1,0,0,1,.051-.479,1.865,1.865,0,0,1,1.879-1.454h.693v-1.25h1.25v1.24h8.25Zm2.625,5.886h-13.5v.181q0,3.968,0,7.936a.649.649,0,0,0,.742.747h12.014a.649.649,0,0,0,.743-.746q0-3.968,0-7.936Zm-13.5-1.272h13.5c0-.516.008-1.021,0-1.525a.585.585,0,0,0-.521-.575c-.277-.025-.558-.005-.854-.005v1.234h-1.247V785.34h-8.252v1.229h-1.252v-1.238c-.272,0-.527-.009-.781,0a.6.6,0,0,0-.582.585C-460.445,786.423-460.436,786.927-460.436,787.443Z" transform="translate(461.689 -782.829)" fill="#9e9e9e"/>
  <path id="Path_529" data-name="Path 529" d="M-382.432,1023.606v-1.392h1.392v1.392Z" transform="translate(384.954 -1015.097)" fill="#9e9e9e"/>
  <path id="Path_530" data-name="Path 530" d="M-297.808,1023.592h-1.39v-1.4h1.39Z" transform="translate(304.029 -1015.078)" fill="#9e9e9e"/>
  <path id="Path_531" data-name="Path 531" d="M-214.623,1022.2v1.393h-1.4V1022.2Z" transform="translate(223.323 -1015.087)" fill="#9e9e9e"/>
  <path id="Path_532" data-name="Path 532" d="M-131.479,1022.36v1.388h-1.4v-1.388Z" transform="translate(142.652 -1015.239)" fill="#9e9e9e"/>
  <path id="Path_533" data-name="Path 533" d="M-48.322,1023.746h-1.392v-1.392h1.392Z" transform="translate(61.796 -1015.233)" fill="#9e9e9e"/>
  <path id="Path_534" data-name="Path 534" d="M-382.432,1106.775v-1.392h1.392v1.392Z" transform="translate(384.954 -1095.793)" fill="#9e9e9e"/>
  <path id="Path_535" data-name="Path 535" d="M-297.768,1105.4v1.391h-1.394V1105.4Z" transform="translate(303.994 -1095.81)" fill="#9e9e9e"/>
  <path id="Path_536" data-name="Path 536" d="M-216.108,1106.788V1105.4h1.392v1.391Z" transform="translate(223.409 -1095.807)" fill="#9e9e9e"/>
  <path id="Path_537" data-name="Path 537" d="M-132.909,1105.313h1.394v1.4h-1.394Z" transform="translate(142.684 -1095.726)" fill="#9e9e9e"/>
  <path id="Path_538" data-name="Path 538" d="M-49.8,1106.816v-1.389h1.4v1.389Z" transform="translate(61.878 -1095.836)" fill="#9e9e9e"/>
  <path id="Path_539" data-name="Path 539" d="M-382.3,1188.509h1.392v1.392H-382.3Z" transform="translate(384.823 -1176.448)" fill="#9e9e9e"/>
  <path id="Path_540" data-name="Path 540" d="M-299.266,1189.947v-1.392h1.392v1.392Z" transform="translate(304.095 -1176.493)" fill="#9e9e9e"/>
  <path id="Path_541" data-name="Path 541" d="M-216.024,1188.537h1.39v1.394h-1.39Z" transform="translate(223.328 -1176.475)" fill="#9e9e9e"/>
  <path id="Path_542" data-name="Path 542" d="M-132.8,1188.515h1.392v1.392H-132.8Z" transform="translate(142.574 -1176.454)" fill="#9e9e9e"/>
</svg>
