<svg xmlns="http://www.w3.org/2000/svg" xmlns:xlink="http://www.w3.org/1999/xlink" width="456.208" height="193.63"
     viewBox="0 0 456.208 193.63">
    <defs>
        <style>.a,.b,.c{fill:#b4bdc2;}.b{font-size:10px;}.b,.c{font-family:Montserrat-Light,
            Montserrat;font-weight:300;}.c{font-size:9px;}.d{fill:url(#a);}.e{fill:url(#c);}.f{fill:url(#f);}.g{fill:url(#h);}.h{fill:url(#i);}.i{fill:url(#j);}.j{fill:url(#l);}
        </style>
        <linearGradient id="a" y1="0.5" x2="1" y2="0.5" gradientUnits="objectBoundingBox">
            <stop offset="0" stop-color="#00bfff"/>
            <stop offset="1" stop-color="#04e296"/>
        </linearGradient>
        <linearGradient id="c" x1="0" y1="0.5" x2="1" y2="0.5" xlink:href="#a"/>
        <linearGradient id="f" x1="0" y1="0.5" x2="1" y2="0.5" xlink:href="#a"/>
        <linearGradient id="h" y1="0.5" x2="1" y2="0.5" gradientUnits="objectBoundingBox">
            <stop offset="0" stop-color="#ffd000"/>
            <stop offset="1" stop-color="#e25504"/>
        </linearGradient>
        <linearGradient id="i" x1="0" y1="0.5" x2="1" y2="0.5" xlink:href="#h"/>
        <linearGradient id="j" x1="0" y1="0.5" x2="1" y2="0.5" xlink:href="#h"/>
        <linearGradient id="l" x1="0" y1="0.5" x2="1" y2="0.5" xlink:href="#h"/>
    </defs>
    <g transform="translate(-640.083 -705.535)">
        <g transform="translate(640.083 709.535)">
            <g transform="translate(0 -4)">
                <g transform="translate(27.599 8.92)">
                    <path class="a"
                          d="M286.41,234.975a.614.614,0,0,1-.4-.159.565.565,0,0,1-.187-.413.56.56,0,0,1,.187-.41.615.615,0,0,1,.816,0,.54.54,0,0,1,.166.41.545.545,0,0,1-.166.413A.672.672,0,0,1,286.41,234.975Z"
                          transform="translate(-285.826 -233.831)"/>
                    <path class="a"
                          d="M709.014,234.407a.557.557,0,0,1,.536-.572h0a.554.554,0,0,1,.517.572h0a.554.554,0,0,1-.517.572h0A.557.557,0,0,1,709.014,234.407Zm-6.184,0a.554.554,0,0,1,.517-.572h0a.541.541,0,0,1,.517.572h0a.54.54,0,0,1-.517.572h0A.554.554,0,0,1,702.831,234.407Zm-6.184,0a.554.554,0,0,1,.517-.572h0a.54.54,0,0,1,.517.572h0a.54.54,0,0,1-.517.572h0A.554.554,0,0,1,696.647,234.407Zm-6.181,0a.539.539,0,0,1,.517-.572h0a.542.542,0,0,1,.517.572h0a.542.542,0,0,1-.517.572h0A.539.539,0,0,1,690.466,234.407Zm-6.184,0a.54.54,0,0,1,.517-.572h0a.54.54,0,0,1,.515.572h0a.54.54,0,0,1-.515.572h0A.54.54,0,0,1,684.282,234.407Zm-6.186,0a.542.542,0,0,1,.517-.572h0a.539.539,0,0,1,.517.572h0a.539.539,0,0,1-.517.572h0A.542.542,0,0,1,678.1,234.407Zm-6.184,0a.542.542,0,0,1,.517-.572h0a.539.539,0,0,1,.517.572h0a.539.539,0,0,1-.517.572h0A.542.542,0,0,1,671.913,234.407Zm-6.181,0a.54.54,0,0,1,.517-.572h0a.542.542,0,0,1,.517.572h0a.542.542,0,0,1-.517.572h0A.54.54,0,0,1,665.731,234.407Zm-6.184,0a.542.542,0,0,1,.517-.572h0a.542.542,0,0,1,.517.572h0a.542.542,0,0,1-.517.572h0A.542.542,0,0,1,659.548,234.407Zm-6.184,0a.542.542,0,0,1,.517-.572h0a.542.542,0,0,1,.517.572h0a.542.542,0,0,1-.517.572h0A.542.542,0,0,1,653.364,234.407Zm-6.184,0a.542.542,0,0,1,.517-.572h0a.541.541,0,0,1,.517.572h0a.54.54,0,0,1-.517.572h0A.542.542,0,0,1,647.18,234.407Zm-6.181,0a.54.54,0,0,1,.517-.572h0a.554.554,0,0,1,.517.572h0a.554.554,0,0,1-.517.572h0A.54.54,0,0,1,641,234.407Zm-6.184,0a.539.539,0,0,1,.517-.572h0a.556.556,0,0,1,.517.572h0a.556.556,0,0,1-.517.572h0A.539.539,0,0,1,634.815,234.407Zm-6.205,0a.544.544,0,0,1,.538-.572h0a.54.54,0,0,1,.5.572h0a.54.54,0,0,1-.5.572h0A.544.544,0,0,1,628.61,234.407Zm-6.184,0a.554.554,0,0,1,.517-.572h0a.559.559,0,0,1,.538.572h0a.559.559,0,0,1-.538.572h0A.554.554,0,0,1,622.427,234.407Zm-6.184,0a.554.554,0,0,1,.517-.572h0a.54.54,0,0,1,.517.572h0a.54.54,0,0,1-.517.572h0A.554.554,0,0,1,616.243,234.407Zm-6.181,0a.541.541,0,0,1,.517-.572h0a.542.542,0,0,1,.517.572h0a.542.542,0,0,1-.517.572h0A.54.54,0,0,1,610.062,234.407Zm-6.184,0a.539.539,0,0,1,.517-.572h0a.542.542,0,0,1,.517.572h0a.542.542,0,0,1-.517.572h0A.539.539,0,0,1,603.878,234.407Zm-6.184,0a.541.541,0,0,1,.517-.572h0a.542.542,0,0,1,.517.572h0a.542.542,0,0,1-.517.572h0A.541.541,0,0,1,597.695,234.407Zm-6.184,0a.54.54,0,0,1,.515-.572h0a.539.539,0,0,1,.517.572h0a.539.539,0,0,1-.517.572h0A.54.54,0,0,1,591.511,234.407Zm-6.184,0a.541.541,0,0,1,.517-.572h0a.54.54,0,0,1,.517.572h0a.54.54,0,0,1-.517.572h0A.541.541,0,0,1,585.327,234.407Zm-6.184,0a.54.54,0,0,1,.517-.572h0a.54.54,0,0,1,.517.572h0a.54.54,0,0,1-.517.572h0A.54.54,0,0,1,579.144,234.407Zm-6.184,0a.542.542,0,0,1,.517-.572h0a.54.54,0,0,1,.517.572h0a.54.54,0,0,1-.517.572h0A.542.542,0,0,1,572.96,234.407Zm-6.184,0a.542.542,0,0,1,.517-.572h0a.54.54,0,0,1,.517.572h0a.54.54,0,0,1-.517.572h0A.542.542,0,0,1,566.776,234.407Zm-6.184,0a.542.542,0,0,1,.517-.572h0a.553.553,0,0,1,.517.572h0a.553.553,0,0,1-.517.572h0A.542.542,0,0,1,560.593,234.407Zm-6.181,0a.54.54,0,0,1,.517-.572h0a.554.554,0,0,1,.517.572h0a.554.554,0,0,1-.517.572h0A.54.54,0,0,1,554.411,234.407Zm-6.2,0a.557.557,0,0,1,.538-.572h0a.54.54,0,0,1,.5.572h0a.54.54,0,0,1-.5.572h0A.557.557,0,0,1,548.207,234.407Zm-6.184,0a.555.555,0,0,1,.517-.572h0a.557.557,0,0,1,.538.572h0a.557.557,0,0,1-.538.572h0A.554.554,0,0,1,542.023,234.407Zm-6.183,0a.554.554,0,0,1,.517-.572h0a.541.541,0,0,1,.517.572h0a.541.541,0,0,1-.517.572h0A.554.554,0,0,1,535.839,234.407Zm-6.184,0a.556.556,0,0,1,.517-.572h0a.54.54,0,0,1,.517.572h0a.54.54,0,0,1-.517.572h0A.556.556,0,0,1,529.656,234.407Zm-6.184,0a.542.542,0,0,1,.517-.572h0a.54.54,0,0,1,.517.572h0a.54.54,0,0,1-.517.572h0A.542.542,0,0,1,523.472,234.407Zm-6.181,0a.54.54,0,0,1,.517-.572h0a.542.542,0,0,1,.517.572h0a.542.542,0,0,1-.517.572h0A.54.54,0,0,1,517.291,234.407Zm-6.184,0a.54.54,0,0,1,.517-.572h0a.542.542,0,0,1,.517.572h0a.542.542,0,0,1-.517.572h0A.54.54,0,0,1,511.107,234.407Zm-6.184,0a.54.54,0,0,1,.517-.572h0a.54.54,0,0,1,.517.572h0a.54.54,0,0,1-.517.572h0A.54.54,0,0,1,504.923,234.407Zm-6.184,0a.542.542,0,0,1,.517-.572h0a.54.54,0,0,1,.517.572h0a.54.54,0,0,1-.517.572h0A.542.542,0,0,1,498.74,234.407Zm-6.184,0a.542.542,0,0,1,.517-.572h0a.54.54,0,0,1,.517.572h0a.54.54,0,0,1-.517.572h0A.542.542,0,0,1,492.556,234.407Zm-6.184,0a.542.542,0,0,1,.517-.572h0a.54.54,0,0,1,.517.572h0a.54.54,0,0,1-.517.572h0A.542.542,0,0,1,486.372,234.407Zm-6.181,0a.54.54,0,0,1,.517-.572h0a.542.542,0,0,1,.517.572h0a.542.542,0,0,1-.517.572h0A.54.54,0,0,1,480.191,234.407Zm-6.184,0a.54.54,0,0,1,.517-.572h0a.554.554,0,0,1,.515.572h0a.554.554,0,0,1-.515.572h0A.54.54,0,0,1,474.007,234.407Zm-6.184,0a.54.54,0,0,1,.517-.572h0a.554.554,0,0,1,.517.572h0a.554.554,0,0,1-.517.572h0A.54.54,0,0,1,467.824,234.407Zm-6.2,0a.557.557,0,0,1,.538-.572h0a.554.554,0,0,1,.517.572h0a.554.554,0,0,1-.517.572h0A.557.557,0,0,1,461.619,234.407Zm-6.184,0a.555.555,0,0,1,.517-.572h0a.557.557,0,0,1,.538.572h0a.557.557,0,0,1-.538.572h0A.554.554,0,0,1,455.435,234.407Zm-6.181,0a.553.553,0,0,1,.517-.572h0a.542.542,0,0,1,.517.572h0a.542.542,0,0,1-.517.572h0A.553.553,0,0,1,449.254,234.407Zm-6.186,0a.542.542,0,0,1,.517-.572h0a.54.54,0,0,1,.517.572h0a.54.54,0,0,1-.517.572h0A.542.542,0,0,1,443.068,234.407Zm-6.181,0a.54.54,0,0,1,.517-.572h0a.542.542,0,0,1,.517.572h0a.542.542,0,0,1-.517.572h0A.54.54,0,0,1,436.887,234.407Zm-6.184,0a.54.54,0,0,1,.517-.572h0a.54.54,0,0,1,.517.572h0a.54.54,0,0,1-.517.572h0A.54.54,0,0,1,430.7,234.407Zm-6.184,0a.54.54,0,0,1,.517-.572h0a.542.542,0,0,1,.517.572h0a.542.542,0,0,1-.517.572h0A.54.54,0,0,1,424.519,234.407Zm-6.184,0a.54.54,0,0,1,.517-.572h0a.54.54,0,0,1,.517.572h0a.54.54,0,0,1-.517.572h0A.54.54,0,0,1,418.336,234.407Zm-6.184,0a.542.542,0,0,1,.517-.572h0a.54.54,0,0,1,.517.572h0a.54.54,0,0,1-.517.572h0A.542.542,0,0,1,412.152,234.407Zm-6.184,0a.542.542,0,0,1,.517-.572h0a.54.54,0,0,1,.517.572h0a.54.54,0,0,1-.517.572h0A.542.542,0,0,1,405.969,234.407Zm-6.181,0a.54.54,0,0,1,.517-.572h0a.542.542,0,0,1,.517.572h0a.542.542,0,0,1-.517.572h0A.54.54,0,0,1,399.787,234.407Zm-6.184,0a.54.54,0,0,1,.517-.572h0a.542.542,0,0,1,.517.572h0a.542.542,0,0,1-.517.572h0A.54.54,0,0,1,393.6,234.407Zm-6.184,0a.54.54,0,0,1,.517-.572h0a.554.554,0,0,1,.517.572h0a.554.554,0,0,1-.517.572h0A.54.54,0,0,1,387.42,234.407Zm-6.2,0a.557.557,0,0,1,.538-.572h0a.538.538,0,0,1,.5.572h0a.538.538,0,0,1-.5.572h0A.557.557,0,0,1,381.215,234.407Zm-6.184,0a.556.556,0,0,1,.517-.572h0a.54.54,0,0,1,.517.572h0a.54.54,0,0,1-.517.572h0A.556.556,0,0,1,375.032,234.407Zm-6.184,0a.554.554,0,0,1,.517-.572h0a.54.54,0,0,1,.517.572h0a.54.54,0,0,1-.517.572h0A.554.554,0,0,1,368.848,234.407Zm-6.181,0a.554.554,0,0,1,.517-.572h0a.542.542,0,0,1,.517.572h0a.542.542,0,0,1-.517.572h0A.554.554,0,0,1,362.667,234.407Zm-6.184,0a.54.54,0,0,1,.517-.572h0a.542.542,0,0,1,.517.572h0a.542.542,0,0,1-.517.572h0A.54.54,0,0,1,356.483,234.407Zm-6.184,0a.54.54,0,0,1,.517-.572h0a.54.54,0,0,1,.517.572h0a.54.54,0,0,1-.517.572h0A.54.54,0,0,1,350.3,234.407Zm-6.184,0a.542.542,0,0,1,.517-.572h0a.54.54,0,0,1,.517.572h0a.54.54,0,0,1-.517.572h0A.542.542,0,0,1,344.116,234.407Zm-6.184,0a.542.542,0,0,1,.517-.572h0a.54.54,0,0,1,.517.572h0a.54.54,0,0,1-.517.572h0A.542.542,0,0,1,337.932,234.407Zm-6.184,0a.542.542,0,0,1,.517-.572h0a.54.54,0,0,1,.517.572h0a.54.54,0,0,1-.517.572h0A.542.542,0,0,1,331.748,234.407Zm-6.181,0a.54.54,0,0,1,.515-.572h0a.54.54,0,0,1,.517.572h0a.54.54,0,0,1-.517.572h0A.54.54,0,0,1,325.567,234.407Zm-6.186,0a.542.542,0,0,1,.517-.572h0a.54.54,0,0,1,.517.572h0a.54.54,0,0,1-.517.572h0A.542.542,0,0,1,319.381,234.407Zm-6.181,0a.54.54,0,0,1,.517-.572h0a.542.542,0,0,1,.517.572h0a.542.542,0,0,1-.517.572h0A.54.54,0,0,1,313.2,234.407Zm-6.184,0a.54.54,0,0,1,.517-.572h0a.554.554,0,0,1,.517.572h0a.554.554,0,0,1-.517.572h0A.54.54,0,0,1,307.016,234.407Zm-6.184,0a.54.54,0,0,1,.517-.572h0a.538.538,0,0,1,.5.572h0a.538.538,0,0,1-.5.572h0A.54.54,0,0,1,300.833,234.407Zm-6.2,0a.553.553,0,0,1,.517-.572h0a.54.54,0,0,1,.515.572h0a.54.54,0,0,1-.515.572h0A.553.553,0,0,1,294.63,234.407Zm-6.186,0a.556.556,0,0,1,.517-.572h0a.54.54,0,0,1,.517.572h0a.54.54,0,0,1-.517.572h0A.556.556,0,0,1,288.444,234.407Z"
                          transform="translate(-281.458 -233.835)"/>
                </g>
                <text class="b" transform="translate(0 10)">
                    <tspan x="0" y="0">1000</tspan>
                </text>
            </g>
            <g transform="translate(0 28.627)">
                <g transform="translate(27.599 8.923)">
                    <path class="a"
                          d="M286.41,246.355a.343.343,0,0,1-.211-.047.5.5,0,0,1-.187-.115.56.56,0,0,1-.187-.41.565.565,0,0,1,.187-.413.616.616,0,0,1,.816,0,.545.545,0,0,1,.166.413.391.391,0,0,1-.048.227.73.73,0,0,1-.117.183A.674.674,0,0,1,286.41,246.355Z"
                          transform="translate(-285.826 -245.21)"/>
                    <path class="a"
                          d="M709.014,245.785a.557.557,0,0,1,.536-.572h0a.554.554,0,0,1,.517.572h0a.556.556,0,0,1-.517.572h0A.558.558,0,0,1,709.014,245.785Zm-6.184,0a.554.554,0,0,1,.517-.572h0a.54.54,0,0,1,.517.572h0a.542.542,0,0,1-.517.572h0A.556.556,0,0,1,702.831,245.785Zm-6.184,0a.554.554,0,0,1,.517-.572h0a.54.54,0,0,1,.517.572h0a.542.542,0,0,1-.517.572h0A.556.556,0,0,1,696.647,245.785Zm-6.181,0a.539.539,0,0,1,.517-.572h0a.542.542,0,0,1,.517.572h0a.544.544,0,0,1-.517.572h0A.541.541,0,0,1,690.466,245.785Zm-6.184,0a.54.54,0,0,1,.517-.572h0a.54.54,0,0,1,.515.572h0a.542.542,0,0,1-.515.572h0A.542.542,0,0,1,684.282,245.785Zm-6.186,0a.542.542,0,0,1,.517-.572h0a.539.539,0,0,1,.517.572h0a.541.541,0,0,1-.517.572h0A.544.544,0,0,1,678.1,245.785Zm-6.184,0a.542.542,0,0,1,.517-.572h0a.539.539,0,0,1,.517.572h0a.541.541,0,0,1-.517.572h0A.544.544,0,0,1,671.913,245.785Zm-6.181,0a.54.54,0,0,1,.517-.572h0a.542.542,0,0,1,.517.572h0a.544.544,0,0,1-.517.572h0A.542.542,0,0,1,665.731,245.785Zm-6.184,0a.542.542,0,0,1,.517-.572h0a.542.542,0,0,1,.517.572h0a.544.544,0,0,1-.517.572h0A.544.544,0,0,1,659.548,245.785Zm-6.184,0a.542.542,0,0,1,.517-.572h0a.542.542,0,0,1,.517.572h0a.543.543,0,0,1-.517.572h0A.544.544,0,0,1,653.364,245.785Zm-6.184,0a.542.542,0,0,1,.517-.572h0a.54.54,0,0,1,.517.572h0a.542.542,0,0,1-.517.572h0A.544.544,0,0,1,647.18,245.785Zm-6.181,0a.54.54,0,0,1,.517-.572h0a.554.554,0,0,1,.517.572h0a.556.556,0,0,1-.517.572h0A.542.542,0,0,1,641,245.785Zm-6.184,0a.539.539,0,0,1,.517-.572h0a.556.556,0,0,1,.517.572h0a.558.558,0,0,1-.517.572h0A.54.54,0,0,1,634.815,245.785Zm-6.205,0a.544.544,0,0,1,.538-.572h0a.54.54,0,0,1,.5.572h0a.541.541,0,0,1-.5.572h0A.546.546,0,0,1,628.61,245.785Zm-6.184,0a.554.554,0,0,1,.517-.572h0a.559.559,0,0,1,.538.572h0a.56.56,0,0,1-.538.572h0A.556.556,0,0,1,622.427,245.785Zm-6.184,0a.554.554,0,0,1,.517-.572h0a.54.54,0,0,1,.517.572h0a.542.542,0,0,1-.517.572h0A.556.556,0,0,1,616.243,245.785Zm-6.181,0a.54.54,0,0,1,.517-.572h0a.542.542,0,0,1,.517.572h0a.544.544,0,0,1-.517.572h0A.542.542,0,0,1,610.062,245.785Zm-6.184,0a.539.539,0,0,1,.517-.572h0a.542.542,0,0,1,.517.572h0a.544.544,0,0,1-.517.572h0A.54.54,0,0,1,603.878,245.785Zm-6.184,0a.541.541,0,0,1,.517-.572h0a.542.542,0,0,1,.517.572h0a.544.544,0,0,1-.517.572h0A.542.542,0,0,1,597.695,245.785Zm-6.184,0a.54.54,0,0,1,.515-.572h0a.539.539,0,0,1,.517.572h0a.541.541,0,0,1-.517.572h0A.542.542,0,0,1,591.511,245.785Zm-6.184,0a.541.541,0,0,1,.517-.572h0a.54.54,0,0,1,.517.572h0a.542.542,0,0,1-.517.572h0A.542.542,0,0,1,585.327,245.785Zm-6.184,0a.54.54,0,0,1,.517-.572h0a.54.54,0,0,1,.517.572h0a.542.542,0,0,1-.517.572h0A.542.542,0,0,1,579.144,245.785Zm-6.184,0a.542.542,0,0,1,.517-.572h0a.54.54,0,0,1,.517.572h0a.542.542,0,0,1-.517.572h0A.544.544,0,0,1,572.96,245.785Zm-6.184,0a.542.542,0,0,1,.517-.572h0a.54.54,0,0,1,.517.572h0a.542.542,0,0,1-.517.572h0A.543.543,0,0,1,566.776,245.785Zm-6.184,0a.542.542,0,0,1,.517-.572h0a.553.553,0,0,1,.517.572h0a.555.555,0,0,1-.517.572h0A.544.544,0,0,1,560.593,245.785Zm-6.181,0a.54.54,0,0,1,.517-.572h0a.554.554,0,0,1,.517.572h0a.556.556,0,0,1-.517.572h0A.542.542,0,0,1,554.411,245.785Zm-6.2,0a.557.557,0,0,1,.538-.572h0a.54.54,0,0,1,.5.572h0a.541.541,0,0,1-.5.572h0A.559.559,0,0,1,548.207,245.785Zm-6.184,0a.554.554,0,0,1,.517-.572h0a.557.557,0,0,1,.538.572h0a.559.559,0,0,1-.538.572h0A.556.556,0,0,1,542.023,245.785Zm-6.183,0a.554.554,0,0,1,.517-.572h0a.541.541,0,0,1,.517.572h0a.542.542,0,0,1-.517.572h0A.556.556,0,0,1,535.839,245.785Zm-6.184,0a.556.556,0,0,1,.517-.572h0a.54.54,0,0,1,.517.572h0a.542.542,0,0,1-.517.572h0A.558.558,0,0,1,529.656,245.785Zm-6.184,0a.542.542,0,0,1,.517-.572h0a.54.54,0,0,1,.517.572h0a.542.542,0,0,1-.517.572h0A.544.544,0,0,1,523.472,245.785Zm-6.181,0a.54.54,0,0,1,.517-.572h0a.542.542,0,0,1,.517.572h0a.544.544,0,0,1-.517.572h0A.542.542,0,0,1,517.291,245.785Zm-6.184,0a.54.54,0,0,1,.517-.572h0a.542.542,0,0,1,.517.572h0a.544.544,0,0,1-.517.572h0A.542.542,0,0,1,511.107,245.785Zm-6.184,0a.54.54,0,0,1,.517-.572h0a.54.54,0,0,1,.517.572h0a.542.542,0,0,1-.517.572h0A.542.542,0,0,1,504.923,245.785Zm-6.184,0a.542.542,0,0,1,.517-.572h0a.54.54,0,0,1,.517.572h0a.542.542,0,0,1-.517.572h0A.544.544,0,0,1,498.74,245.785Zm-6.184,0a.542.542,0,0,1,.517-.572h0a.54.54,0,0,1,.517.572h0a.542.542,0,0,1-.517.572h0A.544.544,0,0,1,492.556,245.785Zm-6.184,0a.542.542,0,0,1,.517-.572h0a.54.54,0,0,1,.517.572h0a.542.542,0,0,1-.517.572h0A.544.544,0,0,1,486.372,245.785Zm-6.181,0a.54.54,0,0,1,.517-.572h0a.542.542,0,0,1,.517.572h0a.544.544,0,0,1-.517.572h0A.542.542,0,0,1,480.191,245.785Zm-6.184,0a.54.54,0,0,1,.517-.572h0a.554.554,0,0,1,.515.572h0a.556.556,0,0,1-.515.572h0A.542.542,0,0,1,474.007,245.785Zm-6.184,0a.54.54,0,0,1,.517-.572h0a.554.554,0,0,1,.517.572h0a.556.556,0,0,1-.517.572h0A.542.542,0,0,1,467.824,245.785Zm-6.2,0a.557.557,0,0,1,.538-.572h0a.554.554,0,0,1,.517.572h0a.556.556,0,0,1-.517.572h0A.559.559,0,0,1,461.619,245.785Zm-6.184,0a.554.554,0,0,1,.517-.572h0a.557.557,0,0,1,.538.572h0a.559.559,0,0,1-.538.572h0A.556.556,0,0,1,455.435,245.785Zm-6.181,0a.553.553,0,0,1,.517-.572h0a.542.542,0,0,1,.517.572h0a.544.544,0,0,1-.517.572h0A.555.555,0,0,1,449.254,245.785Zm-6.186,0a.542.542,0,0,1,.517-.572h0a.54.54,0,0,1,.517.572h0a.542.542,0,0,1-.517.572h0A.544.544,0,0,1,443.068,245.785Zm-6.181,0a.54.54,0,0,1,.517-.572h0a.542.542,0,0,1,.517.572h0a.544.544,0,0,1-.517.572h0A.542.542,0,0,1,436.887,245.785Zm-6.184,0a.54.54,0,0,1,.517-.572h0a.54.54,0,0,1,.517.572h0a.542.542,0,0,1-.517.572h0A.542.542,0,0,1,430.7,245.785Zm-6.184,0a.54.54,0,0,1,.517-.572h0a.542.542,0,0,1,.517.572h0a.544.544,0,0,1-.517.572h0A.542.542,0,0,1,424.519,245.785Zm-6.184,0a.54.54,0,0,1,.517-.572h0a.54.54,0,0,1,.517.572h0a.542.542,0,0,1-.517.572h0A.542.542,0,0,1,418.336,245.785Zm-6.184,0a.542.542,0,0,1,.517-.572h0a.54.54,0,0,1,.517.572h0a.542.542,0,0,1-.517.572h0A.544.544,0,0,1,412.152,245.785Zm-6.184,0a.542.542,0,0,1,.517-.572h0a.54.54,0,0,1,.517.572h0a.542.542,0,0,1-.517.572h0A.543.543,0,0,1,405.969,245.785Zm-6.181,0a.54.54,0,0,1,.517-.572h0a.542.542,0,0,1,.517.572h0a.544.544,0,0,1-.517.572h0A.542.542,0,0,1,399.787,245.785Zm-6.184,0a.54.54,0,0,1,.517-.572h0a.542.542,0,0,1,.517.572h0a.544.544,0,0,1-.517.572h0A.542.542,0,0,1,393.6,245.785Zm-6.184,0a.54.54,0,0,1,.517-.572h0a.554.554,0,0,1,.517.572h0a.556.556,0,0,1-.517.572h0A.542.542,0,0,1,387.42,245.785Zm-6.2,0a.557.557,0,0,1,.538-.572h0a.538.538,0,0,1,.5.572h0a.54.54,0,0,1-.5.572h0A.559.559,0,0,1,381.215,245.785Zm-6.184,0a.556.556,0,0,1,.517-.572h0a.54.54,0,0,1,.517.572h0a.542.542,0,0,1-.517.572h0A.558.558,0,0,1,375.032,245.785Zm-6.184,0a.554.554,0,0,1,.517-.572h0a.54.54,0,0,1,.517.572h0a.542.542,0,0,1-.517.572h0A.556.556,0,0,1,368.848,245.785Zm-6.181,0a.554.554,0,0,1,.517-.572h0a.542.542,0,0,1,.517.572h0a.544.544,0,0,1-.517.572h0A.556.556,0,0,1,362.667,245.785Zm-6.184,0a.54.54,0,0,1,.517-.572h0a.542.542,0,0,1,.517.572h0a.544.544,0,0,1-.517.572h0A.542.542,0,0,1,356.483,245.785Zm-6.184,0a.54.54,0,0,1,.517-.572h0a.54.54,0,0,1,.517.572h0a.542.542,0,0,1-.517.572h0A.542.542,0,0,1,350.3,245.785Zm-6.184,0a.542.542,0,0,1,.517-.572h0a.54.54,0,0,1,.517.572h0a.542.542,0,0,1-.517.572h0A.544.544,0,0,1,344.116,245.785Zm-6.184,0a.542.542,0,0,1,.517-.572h0a.54.54,0,0,1,.517.572h0a.542.542,0,0,1-.517.572h0A.544.544,0,0,1,337.932,245.785Zm-6.184,0a.542.542,0,0,1,.517-.572h0a.54.54,0,0,1,.517.572h0a.542.542,0,0,1-.517.572h0A.544.544,0,0,1,331.748,245.785Zm-6.181,0a.54.54,0,0,1,.515-.572h0a.54.54,0,0,1,.517.572h0a.542.542,0,0,1-.517.572h0A.542.542,0,0,1,325.567,245.785Zm-6.186,0a.542.542,0,0,1,.517-.572h0a.54.54,0,0,1,.517.572h0a.542.542,0,0,1-.517.572h0A.544.544,0,0,1,319.381,245.785Zm-6.181,0a.54.54,0,0,1,.517-.572h0a.542.542,0,0,1,.517.572h0a.544.544,0,0,1-.517.572h0A.542.542,0,0,1,313.2,245.785Zm-6.184,0a.54.54,0,0,1,.517-.572h0a.554.554,0,0,1,.517.572h0a.556.556,0,0,1-.517.572h0A.542.542,0,0,1,307.016,245.785Zm-6.184,0a.54.54,0,0,1,.517-.572h0a.538.538,0,0,1,.5.572h0a.54.54,0,0,1-.5.572h0A.542.542,0,0,1,300.833,245.785Zm-6.2,0a.553.553,0,0,1,.517-.572h0a.54.54,0,0,1,.515.572h0a.542.542,0,0,1-.515.572h0A.555.555,0,0,1,294.63,245.785Zm-6.186,0a.556.556,0,0,1,.517-.572h0a.54.54,0,0,1,.517.572h0a.542.542,0,0,1-.517.572h0A.558.558,0,0,1,288.444,245.785Z"
                          transform="translate(-281.458 -245.213)"/>
                </g>
                <text class="b" transform="translate(0 10)">
                    <tspan x="0" y="0">500</tspan>
                </text>
            </g>
            <g transform="translate(0 61.255)">
                <g transform="translate(27.599 8.922)">
                    <path class="a"
                          d="M286.41,257.73a.614.614,0,0,1-.4-.159.565.565,0,0,1-.187-.413.559.559,0,0,1,.187-.41.615.615,0,0,1,.816,0,.561.561,0,0,1,.117.206.321.321,0,0,1,.048.2.582.582,0,0,1-.166.413A.671.671,0,0,1,286.41,257.73Z"
                          transform="translate(-285.826 -256.586)"/>
                    <path class="a"
                          d="M709.014,257.162a.558.558,0,0,1,.536-.572h0a.556.556,0,0,1,.517.572h0a.554.554,0,0,1-.517.573h0A.557.557,0,0,1,709.014,257.162Zm-6.184,0a.556.556,0,0,1,.517-.572h0a.542.542,0,0,1,.517.572h0a.541.541,0,0,1-.517.573h0A.554.554,0,0,1,702.831,257.162Zm-6.184,0a.556.556,0,0,1,.517-.572h0a.542.542,0,0,1,.517.572h0a.54.54,0,0,1-.517.573h0A.554.554,0,0,1,696.647,257.162Zm-6.181,0a.541.541,0,0,1,.517-.572h0a.544.544,0,0,1,.517.572h0a.542.542,0,0,1-.517.573h0A.539.539,0,0,1,690.466,257.162Zm-6.184,0a.542.542,0,0,1,.517-.572h0a.542.542,0,0,1,.515.572h0a.54.54,0,0,1-.515.573h0A.54.54,0,0,1,684.282,257.162Zm-6.186,0a.544.544,0,0,1,.517-.572h0a.541.541,0,0,1,.517.572h0a.539.539,0,0,1-.517.573h0A.542.542,0,0,1,678.1,257.162Zm-6.184,0a.544.544,0,0,1,.517-.572h0a.541.541,0,0,1,.517.572h0a.539.539,0,0,1-.517.573h0A.542.542,0,0,1,671.913,257.162Zm-6.181,0a.542.542,0,0,1,.517-.572h0a.544.544,0,0,1,.517.572h0a.542.542,0,0,1-.517.573h0A.54.54,0,0,1,665.731,257.162Zm-6.184,0a.544.544,0,0,1,.517-.572h0a.544.544,0,0,1,.517.572h0a.542.542,0,0,1-.517.573h0A.542.542,0,0,1,659.548,257.162Zm-6.184,0a.544.544,0,0,1,.517-.572h0a.543.543,0,0,1,.517.572h0a.542.542,0,0,1-.517.573h0A.542.542,0,0,1,653.364,257.162Zm-6.184,0a.544.544,0,0,1,.517-.572h0a.542.542,0,0,1,.517.572h0a.541.541,0,0,1-.517.573h0A.542.542,0,0,1,647.18,257.162Zm-6.181,0a.542.542,0,0,1,.517-.572h0a.556.556,0,0,1,.517.572h0a.554.554,0,0,1-.517.573h0A.54.54,0,0,1,641,257.162Zm-6.184,0a.54.54,0,0,1,.517-.572h0a.558.558,0,0,1,.517.572h0a.556.556,0,0,1-.517.573h0A.539.539,0,0,1,634.815,257.162Zm-6.205,0a.546.546,0,0,1,.538-.572h0a.541.541,0,0,1,.5.572h0a.54.54,0,0,1-.5.573h0A.544.544,0,0,1,628.61,257.162Zm-6.184,0a.556.556,0,0,1,.517-.572h0a.56.56,0,0,1,.538.572h0a.559.559,0,0,1-.538.573h0A.554.554,0,0,1,622.427,257.162Zm-6.184,0a.556.556,0,0,1,.517-.572h0a.542.542,0,0,1,.517.572h0a.54.54,0,0,1-.517.573h0A.554.554,0,0,1,616.243,257.162Zm-6.181,0a.542.542,0,0,1,.517-.572h0a.544.544,0,0,1,.517.572h0a.542.542,0,0,1-.517.573h0A.541.541,0,0,1,610.062,257.162Zm-6.184,0a.54.54,0,0,1,.517-.572h0a.544.544,0,0,1,.517.572h0a.542.542,0,0,1-.517.573h0A.539.539,0,0,1,603.878,257.162Zm-6.184,0a.542.542,0,0,1,.517-.572h0a.544.544,0,0,1,.517.572h0a.542.542,0,0,1-.517.573h0A.541.541,0,0,1,597.695,257.162Zm-6.184,0a.542.542,0,0,1,.515-.572h0a.541.541,0,0,1,.517.572h0a.539.539,0,0,1-.517.573h0A.54.54,0,0,1,591.511,257.162Zm-6.184,0a.542.542,0,0,1,.517-.572h0a.542.542,0,0,1,.517.572h0a.54.54,0,0,1-.517.573h0A.541.541,0,0,1,585.327,257.162Zm-6.184,0a.542.542,0,0,1,.517-.572h0a.542.542,0,0,1,.517.572h0a.54.54,0,0,1-.517.573h0A.54.54,0,0,1,579.144,257.162Zm-6.184,0a.544.544,0,0,1,.517-.572h0a.542.542,0,0,1,.517.572h0a.54.54,0,0,1-.517.573h0A.542.542,0,0,1,572.96,257.162Zm-6.184,0a.544.544,0,0,1,.517-.572h0a.542.542,0,0,1,.517.572h0a.54.54,0,0,1-.517.573h0A.542.542,0,0,1,566.776,257.162Zm-6.184,0a.544.544,0,0,1,.517-.572h0a.555.555,0,0,1,.517.572h0a.553.553,0,0,1-.517.573h0A.542.542,0,0,1,560.593,257.162Zm-6.181,0a.542.542,0,0,1,.517-.572h0a.556.556,0,0,1,.517.572h0a.554.554,0,0,1-.517.573h0A.54.54,0,0,1,554.411,257.162Zm-6.2,0a.559.559,0,0,1,.538-.572h0a.541.541,0,0,1,.5.572h0a.54.54,0,0,1-.5.573h0A.557.557,0,0,1,548.207,257.162Zm-6.184,0a.556.556,0,0,1,.517-.572h0a.559.559,0,0,1,.538.572h0a.557.557,0,0,1-.538.573h0A.554.554,0,0,1,542.023,257.162Zm-6.183,0a.556.556,0,0,1,.517-.572h0a.542.542,0,0,1,.517.572h0a.541.541,0,0,1-.517.573h0A.554.554,0,0,1,535.839,257.162Zm-6.184,0a.558.558,0,0,1,.517-.572h0a.542.542,0,0,1,.517.572h0a.54.54,0,0,1-.517.573h0A.556.556,0,0,1,529.656,257.162Zm-6.184,0a.544.544,0,0,1,.517-.572h0a.542.542,0,0,1,.517.572h0a.54.54,0,0,1-.517.573h0A.542.542,0,0,1,523.472,257.162Zm-6.181,0a.542.542,0,0,1,.517-.572h0a.544.544,0,0,1,.517.572h0a.542.542,0,0,1-.517.573h0A.54.54,0,0,1,517.291,257.162Zm-6.184,0a.542.542,0,0,1,.517-.572h0a.544.544,0,0,1,.517.572h0a.542.542,0,0,1-.517.573h0A.54.54,0,0,1,511.107,257.162Zm-6.184,0a.542.542,0,0,1,.517-.572h0a.542.542,0,0,1,.517.572h0a.54.54,0,0,1-.517.573h0A.54.54,0,0,1,504.923,257.162Zm-6.184,0a.544.544,0,0,1,.517-.572h0a.542.542,0,0,1,.517.572h0a.54.54,0,0,1-.517.573h0A.542.542,0,0,1,498.74,257.162Zm-6.184,0a.544.544,0,0,1,.517-.572h0a.542.542,0,0,1,.517.572h0a.54.54,0,0,1-.517.573h0A.542.542,0,0,1,492.556,257.162Zm-6.184,0a.544.544,0,0,1,.517-.572h0a.542.542,0,0,1,.517.572h0a.54.54,0,0,1-.517.573h0A.542.542,0,0,1,486.372,257.162Zm-6.181,0a.542.542,0,0,1,.517-.572h0a.544.544,0,0,1,.517.572h0a.542.542,0,0,1-.517.573h0A.54.54,0,0,1,480.191,257.162Zm-6.184,0a.542.542,0,0,1,.517-.572h0a.556.556,0,0,1,.515.572h0a.554.554,0,0,1-.515.573h0A.54.54,0,0,1,474.007,257.162Zm-6.184,0a.542.542,0,0,1,.517-.572h0a.556.556,0,0,1,.517.572h0a.554.554,0,0,1-.517.573h0A.54.54,0,0,1,467.824,257.162Zm-6.2,0a.559.559,0,0,1,.538-.572h0a.556.556,0,0,1,.517.572h0a.554.554,0,0,1-.517.573h0A.557.557,0,0,1,461.619,257.162Zm-6.184,0a.556.556,0,0,1,.517-.572h0a.559.559,0,0,1,.538.572h0a.557.557,0,0,1-.538.573h0A.554.554,0,0,1,455.435,257.162Zm-6.181,0a.555.555,0,0,1,.517-.572h0a.544.544,0,0,1,.517.572h0a.542.542,0,0,1-.517.573h0A.553.553,0,0,1,449.254,257.162Zm-6.186,0a.544.544,0,0,1,.517-.572h0a.542.542,0,0,1,.517.572h0a.54.54,0,0,1-.517.573h0A.542.542,0,0,1,443.068,257.162Zm-6.181,0a.542.542,0,0,1,.517-.572h0a.544.544,0,0,1,.517.572h0a.542.542,0,0,1-.517.573h0A.54.54,0,0,1,436.887,257.162Zm-6.184,0a.542.542,0,0,1,.517-.572h0a.542.542,0,0,1,.517.572h0a.54.54,0,0,1-.517.573h0A.54.54,0,0,1,430.7,257.162Zm-6.184,0a.542.542,0,0,1,.517-.572h0a.544.544,0,0,1,.517.572h0a.542.542,0,0,1-.517.573h0A.54.54,0,0,1,424.519,257.162Zm-6.184,0a.542.542,0,0,1,.517-.572h0a.542.542,0,0,1,.517.572h0a.54.54,0,0,1-.517.573h0A.54.54,0,0,1,418.336,257.162Zm-6.184,0a.544.544,0,0,1,.517-.572h0a.542.542,0,0,1,.517.572h0a.54.54,0,0,1-.517.573h0A.542.542,0,0,1,412.152,257.162Zm-6.184,0a.544.544,0,0,1,.517-.572h0a.542.542,0,0,1,.517.572h0a.54.54,0,0,1-.517.573h0A.542.542,0,0,1,405.969,257.162Zm-6.181,0a.542.542,0,0,1,.517-.572h0a.544.544,0,0,1,.517.572h0a.542.542,0,0,1-.517.573h0A.54.54,0,0,1,399.787,257.162Zm-6.184,0a.542.542,0,0,1,.517-.572h0a.544.544,0,0,1,.517.572h0a.542.542,0,0,1-.517.573h0A.54.54,0,0,1,393.6,257.162Zm-6.184,0a.542.542,0,0,1,.517-.572h0a.556.556,0,0,1,.517.572h0a.554.554,0,0,1-.517.573h0A.54.54,0,0,1,387.42,257.162Zm-6.2,0a.559.559,0,0,1,.538-.572h0a.54.54,0,0,1,.5.572h0a.538.538,0,0,1-.5.573h0A.557.557,0,0,1,381.215,257.162Zm-6.184,0a.558.558,0,0,1,.517-.572h0a.542.542,0,0,1,.517.572h0a.54.54,0,0,1-.517.573h0A.556.556,0,0,1,375.032,257.162Zm-6.184,0a.556.556,0,0,1,.517-.572h0a.542.542,0,0,1,.517.572h0a.54.54,0,0,1-.517.573h0A.554.554,0,0,1,368.848,257.162Zm-6.181,0a.556.556,0,0,1,.517-.572h0a.544.544,0,0,1,.517.572h0a.542.542,0,0,1-.517.573h0A.554.554,0,0,1,362.667,257.162Zm-6.184,0a.542.542,0,0,1,.517-.572h0a.544.544,0,0,1,.517.572h0a.542.542,0,0,1-.517.573h0A.54.54,0,0,1,356.483,257.162Zm-6.184,0a.542.542,0,0,1,.517-.572h0a.542.542,0,0,1,.517.572h0a.54.54,0,0,1-.517.573h0A.54.54,0,0,1,350.3,257.162Zm-6.184,0a.544.544,0,0,1,.517-.572h0a.542.542,0,0,1,.517.572h0a.54.54,0,0,1-.517.573h0A.542.542,0,0,1,344.116,257.162Zm-6.184,0a.544.544,0,0,1,.517-.572h0a.542.542,0,0,1,.517.572h0a.54.54,0,0,1-.517.573h0A.542.542,0,0,1,337.932,257.162Zm-6.184,0a.544.544,0,0,1,.517-.572h0a.542.542,0,0,1,.517.572h0a.54.54,0,0,1-.517.573h0A.542.542,0,0,1,331.748,257.162Zm-6.181,0a.542.542,0,0,1,.515-.572h0a.542.542,0,0,1,.517.572h0a.54.54,0,0,1-.517.573h0A.54.54,0,0,1,325.567,257.162Zm-6.186,0a.544.544,0,0,1,.517-.572h0a.542.542,0,0,1,.517.572h0a.54.54,0,0,1-.517.573h0A.542.542,0,0,1,319.381,257.162Zm-6.181,0a.542.542,0,0,1,.517-.572h0a.544.544,0,0,1,.517.572h0a.542.542,0,0,1-.517.573h0A.54.54,0,0,1,313.2,257.162Zm-6.184,0a.542.542,0,0,1,.517-.572h0a.556.556,0,0,1,.517.572h0a.554.554,0,0,1-.517.573h0A.54.54,0,0,1,307.016,257.162Zm-6.184,0a.542.542,0,0,1,.517-.572h0a.54.54,0,0,1,.5.572h0a.538.538,0,0,1-.5.573h0A.54.54,0,0,1,300.833,257.162Zm-6.2,0a.555.555,0,0,1,.517-.572h0a.542.542,0,0,1,.515.572h0a.54.54,0,0,1-.515.573h0A.553.553,0,0,1,294.63,257.162Zm-6.186,0a.558.558,0,0,1,.517-.572h0a.542.542,0,0,1,.517.572h0a.54.54,0,0,1-.517.573h0A.556.556,0,0,1,288.444,257.162Z"
                          transform="translate(-281.458 -256.59)"/>
                </g>
                <text class="b" transform="translate(0 10)">
                    <tspan x="0" y="0">300</tspan>
                </text>
            </g>
            <g transform="translate(0 93.884)">
                <g transform="translate(27.599 8.922)">
                    <path class="a"
                          d="M286.41,269.109a.6.6,0,0,1-.4-.162.467.467,0,0,1-.142-.18.8.8,0,0,1-.045-.23.57.57,0,0,1,.187-.413.621.621,0,0,1,.816,0,.549.549,0,0,1,.166.413.4.4,0,0,1-.048.23.769.769,0,0,1-.117.18A.616.616,0,0,1,286.41,269.109Z"
                          transform="translate(-285.826 -267.964)"/>
                    <path class="a"
                          d="M709.014,268.54a.557.557,0,0,1,.536-.573h0a.555.555,0,0,1,.517.573h0a.556.556,0,0,1-.517.572h0A.558.558,0,0,1,709.014,268.54Zm-6.184,0a.555.555,0,0,1,.517-.573h0a.541.541,0,0,1,.517.573h0a.542.542,0,0,1-.517.572h0A.556.556,0,0,1,702.831,268.54Zm-6.184,0a.554.554,0,0,1,.517-.573h0a.54.54,0,0,1,.517.573h0a.542.542,0,0,1-.517.572h0A.556.556,0,0,1,696.647,268.54Zm-6.181,0a.539.539,0,0,1,.517-.573h0a.542.542,0,0,1,.517.573h0a.544.544,0,0,1-.517.572h0A.541.541,0,0,1,690.466,268.54Zm-6.184,0a.54.54,0,0,1,.517-.573h0a.54.54,0,0,1,.515.573h0a.542.542,0,0,1-.515.572h0A.542.542,0,0,1,684.282,268.54Zm-6.186,0a.542.542,0,0,1,.517-.573h0a.539.539,0,0,1,.517.573h0a.541.541,0,0,1-.517.572h0A.544.544,0,0,1,678.1,268.54Zm-6.184,0a.542.542,0,0,1,.517-.573h0a.539.539,0,0,1,.517.573h0a.541.541,0,0,1-.517.572h0A.544.544,0,0,1,671.913,268.54Zm-6.181,0a.54.54,0,0,1,.517-.573h0a.542.542,0,0,1,.517.573h0a.544.544,0,0,1-.517.572h0A.542.542,0,0,1,665.731,268.54Zm-6.184,0a.542.542,0,0,1,.517-.573h0a.542.542,0,0,1,.517.573h0a.544.544,0,0,1-.517.572h0A.544.544,0,0,1,659.548,268.54Zm-6.184,0a.542.542,0,0,1,.517-.573h0a.542.542,0,0,1,.517.573h0a.543.543,0,0,1-.517.572h0A.544.544,0,0,1,653.364,268.54Zm-6.184,0a.542.542,0,0,1,.517-.573h0a.541.541,0,0,1,.517.573h0a.542.542,0,0,1-.517.572h0A.544.544,0,0,1,647.18,268.54Zm-6.181,0a.541.541,0,0,1,.517-.573h0a.555.555,0,0,1,.517.573h0a.556.556,0,0,1-.517.572h0A.542.542,0,0,1,641,268.54Zm-6.184,0a.539.539,0,0,1,.517-.573h0a.556.556,0,0,1,.517.573h0a.558.558,0,0,1-.517.572h0A.54.54,0,0,1,634.815,268.54Zm-6.205,0a.544.544,0,0,1,.538-.573h0a.54.54,0,0,1,.5.573h0a.541.541,0,0,1-.5.572h0A.546.546,0,0,1,628.61,268.54Zm-6.184,0a.554.554,0,0,1,.517-.573h0a.559.559,0,0,1,.538.573h0a.56.56,0,0,1-.538.572h0A.556.556,0,0,1,622.427,268.54Zm-6.184,0a.554.554,0,0,1,.517-.573h0a.54.54,0,0,1,.517.573h0a.542.542,0,0,1-.517.572h0A.556.556,0,0,1,616.243,268.54Zm-6.181,0a.541.541,0,0,1,.517-.573h0a.542.542,0,0,1,.517.573h0a.544.544,0,0,1-.517.572h0A.542.542,0,0,1,610.062,268.54Zm-6.184,0a.539.539,0,0,1,.517-.573h0a.542.542,0,0,1,.517.573h0a.544.544,0,0,1-.517.572h0A.54.54,0,0,1,603.878,268.54Zm-6.184,0a.541.541,0,0,1,.517-.573h0a.542.542,0,0,1,.517.573h0a.544.544,0,0,1-.517.572h0A.542.542,0,0,1,597.695,268.54Zm-6.184,0a.54.54,0,0,1,.515-.573h0a.539.539,0,0,1,.517.573h0a.541.541,0,0,1-.517.572h0A.542.542,0,0,1,591.511,268.54Zm-6.184,0a.541.541,0,0,1,.517-.573h0a.54.54,0,0,1,.517.573h0a.542.542,0,0,1-.517.572h0A.542.542,0,0,1,585.327,268.54Zm-6.184,0a.54.54,0,0,1,.517-.573h0a.541.541,0,0,1,.517.573h0a.542.542,0,0,1-.517.572h0A.542.542,0,0,1,579.144,268.54Zm-6.184,0a.542.542,0,0,1,.517-.573h0a.54.54,0,0,1,.517.573h0a.542.542,0,0,1-.517.572h0A.544.544,0,0,1,572.96,268.54Zm-6.184,0a.542.542,0,0,1,.517-.573h0a.541.541,0,0,1,.517.573h0a.542.542,0,0,1-.517.572h0A.543.543,0,0,1,566.776,268.54Zm-6.184,0a.542.542,0,0,1,.517-.573h0a.553.553,0,0,1,.517.573h0a.555.555,0,0,1-.517.572h0A.544.544,0,0,1,560.593,268.54Zm-6.181,0a.541.541,0,0,1,.517-.573h0a.554.554,0,0,1,.517.573h0a.556.556,0,0,1-.517.572h0A.542.542,0,0,1,554.411,268.54Zm-6.2,0a.557.557,0,0,1,.538-.573h0a.54.54,0,0,1,.5.573h0a.541.541,0,0,1-.5.572h0A.559.559,0,0,1,548.207,268.54Zm-6.184,0a.555.555,0,0,1,.517-.573h0a.557.557,0,0,1,.538.573h0a.559.559,0,0,1-.538.572h0A.556.556,0,0,1,542.023,268.54Zm-6.183,0a.554.554,0,0,1,.517-.573h0a.541.541,0,0,1,.517.573h0a.542.542,0,0,1-.517.572h0A.556.556,0,0,1,535.839,268.54Zm-6.184,0a.556.556,0,0,1,.517-.573h0a.54.54,0,0,1,.517.573h0a.542.542,0,0,1-.517.572h0A.558.558,0,0,1,529.656,268.54Zm-6.184,0a.542.542,0,0,1,.517-.573h0a.54.54,0,0,1,.517.573h0a.542.542,0,0,1-.517.572h0A.544.544,0,0,1,523.472,268.54Zm-6.181,0a.54.54,0,0,1,.517-.573h0a.542.542,0,0,1,.517.573h0a.544.544,0,0,1-.517.572h0A.542.542,0,0,1,517.291,268.54Zm-6.184,0a.541.541,0,0,1,.517-.573h0a.542.542,0,0,1,.517.573h0a.544.544,0,0,1-.517.572h0A.542.542,0,0,1,511.107,268.54Zm-6.184,0a.541.541,0,0,1,.517-.573h0a.541.541,0,0,1,.517.573h0a.542.542,0,0,1-.517.572h0A.542.542,0,0,1,504.923,268.54Zm-6.184,0a.542.542,0,0,1,.517-.573h0a.541.541,0,0,1,.517.573h0a.542.542,0,0,1-.517.572h0A.544.544,0,0,1,498.74,268.54Zm-6.184,0a.542.542,0,0,1,.517-.573h0a.541.541,0,0,1,.517.573h0a.542.542,0,0,1-.517.572h0A.544.544,0,0,1,492.556,268.54Zm-6.184,0a.542.542,0,0,1,.517-.573h0a.541.541,0,0,1,.517.573h0a.542.542,0,0,1-.517.572h0A.544.544,0,0,1,486.372,268.54Zm-6.181,0a.541.541,0,0,1,.517-.573h0a.542.542,0,0,1,.517.573h0a.544.544,0,0,1-.517.572h0A.542.542,0,0,1,480.191,268.54Zm-6.184,0a.541.541,0,0,1,.517-.573h0a.554.554,0,0,1,.515.573h0a.556.556,0,0,1-.515.572h0A.542.542,0,0,1,474.007,268.54Zm-6.184,0a.541.541,0,0,1,.517-.573h0a.555.555,0,0,1,.517.573h0a.556.556,0,0,1-.517.572h0A.542.542,0,0,1,467.824,268.54Zm-6.2,0a.557.557,0,0,1,.538-.573h0a.555.555,0,0,1,.517.573h0a.556.556,0,0,1-.517.572h0A.559.559,0,0,1,461.619,268.54Zm-6.184,0a.555.555,0,0,1,.517-.573h0a.557.557,0,0,1,.538.573h0a.559.559,0,0,1-.538.572h0A.556.556,0,0,1,455.435,268.54Zm-6.181,0a.553.553,0,0,1,.517-.573h0a.542.542,0,0,1,.517.573h0a.544.544,0,0,1-.517.572h0A.555.555,0,0,1,449.254,268.54Zm-6.186,0a.542.542,0,0,1,.517-.573h0a.541.541,0,0,1,.517.573h0a.542.542,0,0,1-.517.572h0A.544.544,0,0,1,443.068,268.54Zm-6.181,0a.541.541,0,0,1,.517-.573h0a.542.542,0,0,1,.517.573h0a.544.544,0,0,1-.517.572h0A.542.542,0,0,1,436.887,268.54Zm-6.184,0a.54.54,0,0,1,.517-.573h0a.541.541,0,0,1,.517.573h0a.542.542,0,0,1-.517.572h0A.542.542,0,0,1,430.7,268.54Zm-6.184,0a.541.541,0,0,1,.517-.573h0a.542.542,0,0,1,.517.573h0a.544.544,0,0,1-.517.572h0A.542.542,0,0,1,424.519,268.54Zm-6.184,0a.54.54,0,0,1,.517-.573h0a.541.541,0,0,1,.517.573h0a.542.542,0,0,1-.517.572h0A.542.542,0,0,1,418.336,268.54Zm-6.184,0a.542.542,0,0,1,.517-.573h0a.541.541,0,0,1,.517.573h0a.542.542,0,0,1-.517.572h0A.544.544,0,0,1,412.152,268.54Zm-6.184,0a.542.542,0,0,1,.517-.573h0a.541.541,0,0,1,.517.573h0a.542.542,0,0,1-.517.572h0A.543.543,0,0,1,405.969,268.54Zm-6.181,0a.541.541,0,0,1,.517-.573h0a.542.542,0,0,1,.517.573h0a.544.544,0,0,1-.517.572h0A.542.542,0,0,1,399.787,268.54Zm-6.184,0a.541.541,0,0,1,.517-.573h0a.542.542,0,0,1,.517.573h0a.544.544,0,0,1-.517.572h0A.542.542,0,0,1,393.6,268.54Zm-6.184,0a.54.54,0,0,1,.517-.573h0a.555.555,0,0,1,.517.573h0a.556.556,0,0,1-.517.572h0A.542.542,0,0,1,387.42,268.54Zm-6.2,0a.557.557,0,0,1,.538-.573h0a.538.538,0,0,1,.5.573h0a.54.54,0,0,1-.5.572h0A.559.559,0,0,1,381.215,268.54Zm-6.184,0a.556.556,0,0,1,.517-.573h0a.541.541,0,0,1,.517.573h0a.542.542,0,0,1-.517.572h0A.558.558,0,0,1,375.032,268.54Zm-6.184,0a.555.555,0,0,1,.517-.573h0a.541.541,0,0,1,.517.573h0a.542.542,0,0,1-.517.572h0A.556.556,0,0,1,368.848,268.54Zm-6.181,0a.554.554,0,0,1,.517-.573h0a.542.542,0,0,1,.517.573h0a.544.544,0,0,1-.517.572h0A.556.556,0,0,1,362.667,268.54Zm-6.184,0a.541.541,0,0,1,.517-.573h0a.542.542,0,0,1,.517.573h0a.544.544,0,0,1-.517.572h0A.542.542,0,0,1,356.483,268.54Zm-6.184,0a.541.541,0,0,1,.517-.573h0a.541.541,0,0,1,.517.573h0a.542.542,0,0,1-.517.572h0A.542.542,0,0,1,350.3,268.54Zm-6.184,0a.542.542,0,0,1,.517-.573h0a.541.541,0,0,1,.517.573h0a.542.542,0,0,1-.517.572h0A.544.544,0,0,1,344.116,268.54Zm-6.184,0a.542.542,0,0,1,.517-.573h0a.541.541,0,0,1,.517.573h0a.542.542,0,0,1-.517.572h0A.544.544,0,0,1,337.932,268.54Zm-6.184,0a.542.542,0,0,1,.517-.573h0a.54.54,0,0,1,.517.573h0a.542.542,0,0,1-.517.572h0A.544.544,0,0,1,331.748,268.54Zm-6.181,0a.54.54,0,0,1,.515-.573h0a.541.541,0,0,1,.517.573h0a.542.542,0,0,1-.517.572h0A.542.542,0,0,1,325.567,268.54Zm-6.186,0a.542.542,0,0,1,.517-.573h0a.54.54,0,0,1,.517.573h0a.542.542,0,0,1-.517.572h0A.544.544,0,0,1,319.381,268.54Zm-6.181,0a.541.541,0,0,1,.517-.573h0a.542.542,0,0,1,.517.573h0a.544.544,0,0,1-.517.572h0A.542.542,0,0,1,313.2,268.54Zm-6.184,0a.541.541,0,0,1,.517-.573h0a.555.555,0,0,1,.517.573h0a.556.556,0,0,1-.517.572h0A.542.542,0,0,1,307.016,268.54Zm-6.184,0a.54.54,0,0,1,.517-.573h0a.538.538,0,0,1,.5.573h0a.54.54,0,0,1-.5.572h0A.542.542,0,0,1,300.833,268.54Zm-6.2,0a.553.553,0,0,1,.517-.573h0a.54.54,0,0,1,.515.573h0a.542.542,0,0,1-.515.572h0A.555.555,0,0,1,294.63,268.54Zm-6.186,0a.556.556,0,0,1,.517-.573h0a.54.54,0,0,1,.517.573h0a.542.542,0,0,1-.517.572h0A.558.558,0,0,1,288.444,268.54Z"
                          transform="translate(-281.458 -267.968)"/>
                </g>
                <text class="b" transform="translate(0 10)">
                    <tspan x="0" y="0">100</tspan>
                </text>
            </g>
            <g transform="translate(0 126.514)">
                <g transform="translate(27.599 8.92)">
                    <path class="a"
                          d="M286.41,280.49a.514.514,0,0,1-.4-.159.547.547,0,0,1,0-.823.57.57,0,0,1,.63-.115.508.508,0,0,1,.187.115.595.595,0,0,1,0,.823.475.475,0,0,1-.187.115A.676.676,0,0,1,286.41,280.49Z"
                          transform="translate(-285.826 -279.345)"/>
                    <path class="a"
                          d="M709.014,279.92a.559.559,0,0,1,.536-.575h0a.557.557,0,0,1,.517.575h0a.554.554,0,0,1-.517.57h0A.556.556,0,0,1,709.014,279.92Zm-6.184,0a.557.557,0,0,1,.517-.575h0a.543.543,0,0,1,.517.575h0a.54.54,0,0,1-.517.57h0A.554.554,0,0,1,702.831,279.92Zm-6.184,0a.557.557,0,0,1,.517-.575h0a.543.543,0,0,1,.517.575h0a.54.54,0,0,1-.517.57h0A.553.553,0,0,1,696.647,279.92Zm-6.181,0a.541.541,0,0,1,.517-.575h0a.544.544,0,0,1,.517.575h0a.541.541,0,0,1-.517.57h0A.538.538,0,0,1,690.466,279.92Zm-6.184,0a.543.543,0,0,1,.517-.575h0a.542.542,0,0,1,.515.575h0a.539.539,0,0,1-.515.57h0A.54.54,0,0,1,684.282,279.92Zm-6.186,0a.544.544,0,0,1,.517-.575h0a.541.541,0,0,1,.517.575h0a.538.538,0,0,1-.517.57h0A.541.541,0,0,1,678.1,279.92Zm-6.184,0a.544.544,0,0,1,.517-.575h0a.541.541,0,0,1,.517.575h0a.538.538,0,0,1-.517.57h0A.541.541,0,0,1,671.913,279.92Zm-6.181,0a.543.543,0,0,1,.517-.575h0a.544.544,0,0,1,.517.575h0a.541.541,0,0,1-.517.57h0A.54.54,0,0,1,665.731,279.92Zm-6.184,0a.544.544,0,0,1,.517-.575h0a.544.544,0,0,1,.517.575h0a.541.541,0,0,1-.517.57h0A.541.541,0,0,1,659.548,279.92Zm-6.184,0a.544.544,0,0,1,.517-.575h0a.544.544,0,0,1,.517.575h0a.541.541,0,0,1-.517.57h0A.541.541,0,0,1,653.364,279.92Zm-6.184,0a.544.544,0,0,1,.517-.575h0a.543.543,0,0,1,.517.575h0a.54.54,0,0,1-.517.57h0A.541.541,0,0,1,647.18,279.92Zm-6.181,0a.543.543,0,0,1,.517-.575h0a.557.557,0,0,1,.517.575h0a.554.554,0,0,1-.517.57h0A.54.54,0,0,1,641,279.92Zm-6.184,0a.541.541,0,0,1,.517-.575h0a.559.559,0,0,1,.517.575h0a.555.555,0,0,1-.517.57h0A.538.538,0,0,1,634.815,279.92Zm-6.205,0a.546.546,0,0,1,.538-.575h0a.542.542,0,0,1,.5.575h0a.539.539,0,0,1-.5.57h0A.543.543,0,0,1,628.61,279.92Zm-6.184,0a.557.557,0,0,1,.517-.575h0a.561.561,0,0,1,.538.575h0a.558.558,0,0,1-.538.57h0A.554.554,0,0,1,622.427,279.92Zm-6.184,0a.557.557,0,0,1,.517-.575h0a.543.543,0,0,1,.517.575h0a.54.54,0,0,1-.517.57h0A.554.554,0,0,1,616.243,279.92Zm-6.181,0a.543.543,0,0,1,.517-.575h0a.544.544,0,0,1,.517.575h0a.541.541,0,0,1-.517.57h0A.54.54,0,0,1,610.062,279.92Zm-6.184,0a.541.541,0,0,1,.517-.575h0a.544.544,0,0,1,.517.575h0a.541.541,0,0,1-.517.57h0A.538.538,0,0,1,603.878,279.92Zm-6.184,0a.543.543,0,0,1,.517-.575h0a.544.544,0,0,1,.517.575h0a.541.541,0,0,1-.517.57h0A.54.54,0,0,1,597.695,279.92Zm-6.184,0a.542.542,0,0,1,.515-.575h0a.541.541,0,0,1,.517.575h0a.538.538,0,0,1-.517.57h0A.539.539,0,0,1,591.511,279.92Zm-6.184,0a.543.543,0,0,1,.517-.575h0a.543.543,0,0,1,.517.575h0a.54.54,0,0,1-.517.57h0A.54.54,0,0,1,585.327,279.92Zm-6.184,0a.543.543,0,0,1,.517-.575h0a.543.543,0,0,1,.517.575h0a.54.54,0,0,1-.517.57h0A.54.54,0,0,1,579.144,279.92Zm-6.184,0a.544.544,0,0,1,.517-.575h0a.543.543,0,0,1,.517.575h0a.54.54,0,0,1-.517.57h0A.541.541,0,0,1,572.96,279.92Zm-6.184,0a.544.544,0,0,1,.517-.575h0a.543.543,0,0,1,.517.575h0a.54.54,0,0,1-.517.57h0A.541.541,0,0,1,566.776,279.92Zm-6.184,0a.544.544,0,0,1,.517-.575h0a.555.555,0,0,1,.517.575h0a.552.552,0,0,1-.517.57h0A.541.541,0,0,1,560.593,279.92Zm-6.181,0a.543.543,0,0,1,.517-.575h0a.557.557,0,0,1,.517.575h0a.554.554,0,0,1-.517.57h0A.54.54,0,0,1,554.411,279.92Zm-6.2,0a.56.56,0,0,1,.538-.575h0a.542.542,0,0,1,.5.575h0a.539.539,0,0,1-.5.57h0A.556.556,0,0,1,548.207,279.92Zm-6.184,0a.557.557,0,0,1,.517-.575h0a.559.559,0,0,1,.538.575h0a.556.556,0,0,1-.538.57h0A.554.554,0,0,1,542.023,279.92Zm-6.183,0a.557.557,0,0,1,.517-.575h0a.543.543,0,0,1,.517.575h0a.54.54,0,0,1-.517.57h0A.554.554,0,0,1,535.839,279.92Zm-6.184,0a.559.559,0,0,1,.517-.575h0a.543.543,0,0,1,.517.575h0a.54.54,0,0,1-.517.57h0A.555.555,0,0,1,529.656,279.92Zm-6.184,0a.544.544,0,0,1,.517-.575h0a.543.543,0,0,1,.517.575h0a.54.54,0,0,1-.517.57h0A.541.541,0,0,1,523.472,279.92Zm-6.181,0a.543.543,0,0,1,.517-.575h0a.544.544,0,0,1,.517.575h0a.541.541,0,0,1-.517.57h0A.54.54,0,0,1,517.291,279.92Zm-6.184,0a.543.543,0,0,1,.517-.575h0a.544.544,0,0,1,.517.575h0a.541.541,0,0,1-.517.57h0A.54.54,0,0,1,511.107,279.92Zm-6.184,0a.543.543,0,0,1,.517-.575h0a.543.543,0,0,1,.517.575h0a.54.54,0,0,1-.517.57h0A.54.54,0,0,1,504.923,279.92Zm-6.184,0a.544.544,0,0,1,.517-.575h0a.543.543,0,0,1,.517.575h0a.54.54,0,0,1-.517.57h0A.541.541,0,0,1,498.74,279.92Zm-6.184,0a.544.544,0,0,1,.517-.575h0a.543.543,0,0,1,.517.575h0a.54.54,0,0,1-.517.57h0A.541.541,0,0,1,492.556,279.92Zm-6.184,0a.544.544,0,0,1,.517-.575h0a.543.543,0,0,1,.517.575h0a.54.54,0,0,1-.517.57h0A.541.541,0,0,1,486.372,279.92Zm-6.181,0a.543.543,0,0,1,.517-.575h0a.544.544,0,0,1,.517.575h0a.541.541,0,0,1-.517.57h0A.54.54,0,0,1,480.191,279.92Zm-6.184,0a.543.543,0,0,1,.517-.575h0a.557.557,0,0,1,.515.575h0a.553.553,0,0,1-.515.57h0A.54.54,0,0,1,474.007,279.92Zm-6.184,0a.543.543,0,0,1,.517-.575h0a.557.557,0,0,1,.517.575h0a.554.554,0,0,1-.517.57h0A.54.54,0,0,1,467.824,279.92Zm-6.2,0a.56.56,0,0,1,.538-.575h0a.557.557,0,0,1,.517.575h0a.554.554,0,0,1-.517.57h0A.556.556,0,0,1,461.619,279.92Zm-6.184,0a.557.557,0,0,1,.517-.575h0a.56.56,0,0,1,.538.575h0a.556.556,0,0,1-.538.57h0A.554.554,0,0,1,455.435,279.92Zm-6.181,0a.555.555,0,0,1,.517-.575h0a.544.544,0,0,1,.517.575h0a.541.541,0,0,1-.517.57h0A.552.552,0,0,1,449.254,279.92Zm-6.186,0a.544.544,0,0,1,.517-.575h0a.543.543,0,0,1,.517.575h0a.54.54,0,0,1-.517.57h0A.541.541,0,0,1,443.068,279.92Zm-6.181,0a.543.543,0,0,1,.517-.575h0a.544.544,0,0,1,.517.575h0a.541.541,0,0,1-.517.57h0A.54.54,0,0,1,436.887,279.92Zm-6.184,0a.543.543,0,0,1,.517-.575h0a.543.543,0,0,1,.517.575h0a.54.54,0,0,1-.517.57h0A.54.54,0,0,1,430.7,279.92Zm-6.184,0a.543.543,0,0,1,.517-.575h0a.544.544,0,0,1,.517.575h0a.541.541,0,0,1-.517.57h0A.54.54,0,0,1,424.519,279.92Zm-6.184,0a.543.543,0,0,1,.517-.575h0a.543.543,0,0,1,.517.575h0a.54.54,0,0,1-.517.57h0A.54.54,0,0,1,418.336,279.92Zm-6.184,0a.544.544,0,0,1,.517-.575h0a.543.543,0,0,1,.517.575h0a.54.54,0,0,1-.517.57h0A.541.541,0,0,1,412.152,279.92Zm-6.184,0a.544.544,0,0,1,.517-.575h0a.543.543,0,0,1,.517.575h0a.54.54,0,0,1-.517.57h0A.541.541,0,0,1,405.969,279.92Zm-6.181,0a.543.543,0,0,1,.517-.575h0a.544.544,0,0,1,.517.575h0a.541.541,0,0,1-.517.57h0A.54.54,0,0,1,399.787,279.92Zm-6.184,0a.543.543,0,0,1,.517-.575h0a.544.544,0,0,1,.517.575h0a.541.541,0,0,1-.517.57h0A.54.54,0,0,1,393.6,279.92Zm-6.184,0a.543.543,0,0,1,.517-.575h0a.557.557,0,0,1,.517.575h0a.554.554,0,0,1-.517.57h0A.54.54,0,0,1,387.42,279.92Zm-6.2,0a.56.56,0,0,1,.538-.575h0a.54.54,0,0,1,.5.575h0a.537.537,0,0,1-.5.57h0A.557.557,0,0,1,381.215,279.92Zm-6.184,0a.558.558,0,0,1,.517-.575h0a.543.543,0,0,1,.517.575h0a.54.54,0,0,1-.517.57h0A.555.555,0,0,1,375.032,279.92Zm-6.184,0a.557.557,0,0,1,.517-.575h0a.543.543,0,0,1,.517.575h0a.54.54,0,0,1-.517.57h0A.554.554,0,0,1,368.848,279.92Zm-6.181,0a.557.557,0,0,1,.517-.575h0a.544.544,0,0,1,.517.575h0a.541.541,0,0,1-.517.57h0A.554.554,0,0,1,362.667,279.92Zm-6.184,0a.543.543,0,0,1,.517-.575h0a.544.544,0,0,1,.517.575h0a.541.541,0,0,1-.517.57h0A.54.54,0,0,1,356.483,279.92Zm-6.184,0a.543.543,0,0,1,.517-.575h0a.543.543,0,0,1,.517.575h0a.54.54,0,0,1-.517.57h0A.54.54,0,0,1,350.3,279.92Zm-6.184,0a.544.544,0,0,1,.517-.575h0a.543.543,0,0,1,.517.575h0a.54.54,0,0,1-.517.57h0A.541.541,0,0,1,344.116,279.92Zm-6.184,0a.544.544,0,0,1,.517-.575h0a.543.543,0,0,1,.517.575h0a.54.54,0,0,1-.517.57h0A.541.541,0,0,1,337.932,279.92Zm-6.184,0a.544.544,0,0,1,.517-.575h0a.543.543,0,0,1,.517.575h0a.54.54,0,0,1-.517.57h0A.541.541,0,0,1,331.748,279.92Zm-6.181,0a.542.542,0,0,1,.515-.575h0a.543.543,0,0,1,.517.575h0a.54.54,0,0,1-.517.57h0A.539.539,0,0,1,325.567,279.92Zm-6.186,0a.544.544,0,0,1,.517-.575h0a.543.543,0,0,1,.517.575h0a.54.54,0,0,1-.517.57h0A.541.541,0,0,1,319.381,279.92Zm-6.181,0a.543.543,0,0,1,.517-.575h0a.544.544,0,0,1,.517.575h0a.541.541,0,0,1-.517.57h0A.54.54,0,0,1,313.2,279.92Zm-6.184,0a.543.543,0,0,1,.517-.575h0a.557.557,0,0,1,.517.575h0a.554.554,0,0,1-.517.57h0A.54.54,0,0,1,307.016,279.92Zm-6.184,0a.543.543,0,0,1,.517-.575h0a.541.541,0,0,1,.5.575h0a.537.537,0,0,1-.5.57h0A.54.54,0,0,1,300.833,279.92Zm-6.2,0a.555.555,0,0,1,.517-.575h0a.543.543,0,0,1,.515.575h0a.539.539,0,0,1-.515.57h0A.552.552,0,0,1,294.63,279.92Zm-6.186,0a.559.559,0,0,1,.517-.575h0a.543.543,0,0,1,.517.575h0a.54.54,0,0,1-.517.57h0A.555.555,0,0,1,288.444,279.92Z"
                          transform="translate(-281.458 -279.345)"/>
                </g>
                <text class="b" transform="translate(0 10)">
                    <tspan x="0" y="0">50</tspan>
                </text>
            </g>
            <g transform="translate(0 160.602)">
                <g transform="translate(27.599 8.92)">
                    <path class="a"
                          d="M286.41,291.864a.514.514,0,0,1-.4-.159.566.566,0,0,1-.187-.413.945.945,0,0,1,.045-.227.5.5,0,0,1,.142-.186.621.621,0,0,1,.816,0,.853.853,0,0,1,.117.186.43.43,0,0,1,.048.227.546.546,0,0,1-.166.413A.561.561,0,0,1,286.41,291.864Z"
                          transform="translate(-285.826 -290.719)"/>
                    <path class="a"
                          d="M709.014,291.3a.558.558,0,0,1,.536-.572h0a.556.556,0,0,1,.517.572h0a.554.554,0,0,1-.517.573h0A.557.557,0,0,1,709.014,291.3Zm-6.184,0a.556.556,0,0,1,.517-.572h0a.542.542,0,0,1,.517.572h0a.541.541,0,0,1-.517.573h0A.554.554,0,0,1,702.831,291.3Zm-6.184,0a.556.556,0,0,1,.517-.572h0a.542.542,0,0,1,.517.572h0a.54.54,0,0,1-.517.573h0A.554.554,0,0,1,696.647,291.3Zm-6.181,0a.541.541,0,0,1,.517-.572h0a.544.544,0,0,1,.517.572h0a.542.542,0,0,1-.517.573h0A.539.539,0,0,1,690.466,291.3Zm-6.184,0a.542.542,0,0,1,.517-.572h0a.542.542,0,0,1,.515.572h0a.54.54,0,0,1-.515.573h0A.54.54,0,0,1,684.282,291.3Zm-6.186,0a.544.544,0,0,1,.517-.572h0a.541.541,0,0,1,.517.572h0a.539.539,0,0,1-.517.573h0A.542.542,0,0,1,678.1,291.3Zm-6.184,0a.544.544,0,0,1,.517-.572h0a.541.541,0,0,1,.517.572h0a.539.539,0,0,1-.517.573h0A.542.542,0,0,1,671.913,291.3Zm-6.181,0a.542.542,0,0,1,.517-.572h0a.544.544,0,0,1,.517.572h0a.542.542,0,0,1-.517.573h0A.54.54,0,0,1,665.731,291.3Zm-6.184,0a.544.544,0,0,1,.517-.572h0a.544.544,0,0,1,.517.572h0a.542.542,0,0,1-.517.573h0A.542.542,0,0,1,659.548,291.3Zm-6.184,0a.544.544,0,0,1,.517-.572h0a.543.543,0,0,1,.517.572h0a.542.542,0,0,1-.517.573h0A.542.542,0,0,1,653.364,291.3Zm-6.184,0a.544.544,0,0,1,.517-.572h0a.542.542,0,0,1,.517.572h0a.541.541,0,0,1-.517.573h0A.542.542,0,0,1,647.18,291.3Zm-6.181,0a.542.542,0,0,1,.517-.572h0a.556.556,0,0,1,.517.572h0a.554.554,0,0,1-.517.573h0A.54.54,0,0,1,641,291.3Zm-6.184,0a.54.54,0,0,1,.517-.572h0a.558.558,0,0,1,.517.572h0a.556.556,0,0,1-.517.573h0A.539.539,0,0,1,634.815,291.3Zm-6.205,0a.546.546,0,0,1,.538-.572h0a.541.541,0,0,1,.5.572h0a.54.54,0,0,1-.5.573h0A.544.544,0,0,1,628.61,291.3Zm-6.184,0a.556.556,0,0,1,.517-.572h0a.56.56,0,0,1,.538.572h0a.559.559,0,0,1-.538.573h0A.554.554,0,0,1,622.427,291.3Zm-6.184,0a.556.556,0,0,1,.517-.572h0a.542.542,0,0,1,.517.572h0a.54.54,0,0,1-.517.573h0A.554.554,0,0,1,616.243,291.3Zm-6.181,0a.542.542,0,0,1,.517-.572h0a.544.544,0,0,1,.517.572h0a.542.542,0,0,1-.517.573h0A.541.541,0,0,1,610.062,291.3Zm-6.184,0a.54.54,0,0,1,.517-.572h0a.544.544,0,0,1,.517.572h0a.542.542,0,0,1-.517.573h0A.539.539,0,0,1,603.878,291.3Zm-6.184,0a.542.542,0,0,1,.517-.572h0a.544.544,0,0,1,.517.572h0a.542.542,0,0,1-.517.573h0A.541.541,0,0,1,597.695,291.3Zm-6.184,0a.542.542,0,0,1,.515-.572h0a.541.541,0,0,1,.517.572h0a.539.539,0,0,1-.517.573h0A.54.54,0,0,1,591.511,291.3Zm-6.184,0a.542.542,0,0,1,.517-.572h0a.542.542,0,0,1,.517.572h0a.54.54,0,0,1-.517.573h0A.541.541,0,0,1,585.327,291.3Zm-6.184,0a.542.542,0,0,1,.517-.572h0a.542.542,0,0,1,.517.572h0a.54.54,0,0,1-.517.573h0A.54.54,0,0,1,579.144,291.3Zm-6.184,0a.544.544,0,0,1,.517-.572h0a.542.542,0,0,1,.517.572h0a.54.54,0,0,1-.517.573h0A.542.542,0,0,1,572.96,291.3Zm-6.184,0a.544.544,0,0,1,.517-.572h0a.542.542,0,0,1,.517.572h0a.54.54,0,0,1-.517.573h0A.542.542,0,0,1,566.776,291.3Zm-6.184,0a.544.544,0,0,1,.517-.572h0a.555.555,0,0,1,.517.572h0a.553.553,0,0,1-.517.573h0A.542.542,0,0,1,560.593,291.3Zm-6.181,0a.542.542,0,0,1,.517-.572h0a.556.556,0,0,1,.517.572h0a.554.554,0,0,1-.517.573h0A.54.54,0,0,1,554.411,291.3Zm-6.2,0a.559.559,0,0,1,.538-.572h0a.541.541,0,0,1,.5.572h0a.54.54,0,0,1-.5.573h0A.557.557,0,0,1,548.207,291.3Zm-6.184,0a.556.556,0,0,1,.517-.572h0a.559.559,0,0,1,.538.572h0a.557.557,0,0,1-.538.573h0A.554.554,0,0,1,542.023,291.3Zm-6.183,0a.556.556,0,0,1,.517-.572h0a.542.542,0,0,1,.517.572h0a.541.541,0,0,1-.517.573h0A.554.554,0,0,1,535.839,291.3Zm-6.184,0a.558.558,0,0,1,.517-.572h0a.542.542,0,0,1,.517.572h0a.54.54,0,0,1-.517.573h0A.556.556,0,0,1,529.656,291.3Zm-6.184,0a.544.544,0,0,1,.517-.572h0a.542.542,0,0,1,.517.572h0a.54.54,0,0,1-.517.573h0A.542.542,0,0,1,523.472,291.3Zm-6.181,0a.542.542,0,0,1,.517-.572h0a.544.544,0,0,1,.517.572h0a.542.542,0,0,1-.517.573h0A.54.54,0,0,1,517.291,291.3Zm-6.184,0a.542.542,0,0,1,.517-.572h0a.544.544,0,0,1,.517.572h0a.542.542,0,0,1-.517.573h0A.54.54,0,0,1,511.107,291.3Zm-6.184,0a.542.542,0,0,1,.517-.572h0a.542.542,0,0,1,.517.572h0a.54.54,0,0,1-.517.573h0A.54.54,0,0,1,504.923,291.3Zm-6.184,0a.544.544,0,0,1,.517-.572h0a.542.542,0,0,1,.517.572h0a.54.54,0,0,1-.517.573h0A.542.542,0,0,1,498.74,291.3Zm-6.184,0a.544.544,0,0,1,.517-.572h0a.542.542,0,0,1,.517.572h0a.54.54,0,0,1-.517.573h0A.542.542,0,0,1,492.556,291.3Zm-6.184,0a.544.544,0,0,1,.517-.572h0a.542.542,0,0,1,.517.572h0a.54.54,0,0,1-.517.573h0A.542.542,0,0,1,486.372,291.3Zm-6.181,0a.542.542,0,0,1,.517-.572h0a.544.544,0,0,1,.517.572h0a.542.542,0,0,1-.517.573h0A.54.54,0,0,1,480.191,291.3Zm-6.184,0a.542.542,0,0,1,.517-.572h0a.556.556,0,0,1,.515.572h0a.554.554,0,0,1-.515.573h0A.54.54,0,0,1,474.007,291.3Zm-6.184,0a.542.542,0,0,1,.517-.572h0a.556.556,0,0,1,.517.572h0a.554.554,0,0,1-.517.573h0A.54.54,0,0,1,467.824,291.3Zm-6.2,0a.559.559,0,0,1,.538-.572h0a.556.556,0,0,1,.517.572h0a.554.554,0,0,1-.517.573h0A.557.557,0,0,1,461.619,291.3Zm-6.184,0a.556.556,0,0,1,.517-.572h0a.559.559,0,0,1,.538.572h0a.557.557,0,0,1-.538.573h0A.554.554,0,0,1,455.435,291.3Zm-6.181,0a.555.555,0,0,1,.517-.572h0a.544.544,0,0,1,.517.572h0a.542.542,0,0,1-.517.573h0A.553.553,0,0,1,449.254,291.3Zm-6.186,0a.544.544,0,0,1,.517-.572h0a.542.542,0,0,1,.517.572h0a.54.54,0,0,1-.517.573h0A.542.542,0,0,1,443.068,291.3Zm-6.181,0a.542.542,0,0,1,.517-.572h0a.544.544,0,0,1,.517.572h0a.542.542,0,0,1-.517.573h0A.54.54,0,0,1,436.887,291.3Zm-6.184,0a.542.542,0,0,1,.517-.572h0a.542.542,0,0,1,.517.572h0a.54.54,0,0,1-.517.573h0A.54.54,0,0,1,430.7,291.3Zm-6.184,0a.542.542,0,0,1,.517-.572h0a.544.544,0,0,1,.517.572h0a.542.542,0,0,1-.517.573h0A.54.54,0,0,1,424.519,291.3Zm-6.184,0a.542.542,0,0,1,.517-.572h0a.542.542,0,0,1,.517.572h0a.54.54,0,0,1-.517.573h0A.54.54,0,0,1,418.336,291.3Zm-6.184,0a.544.544,0,0,1,.517-.572h0a.542.542,0,0,1,.517.572h0a.54.54,0,0,1-.517.573h0A.542.542,0,0,1,412.152,291.3Zm-6.184,0a.544.544,0,0,1,.517-.572h0a.542.542,0,0,1,.517.572h0a.54.54,0,0,1-.517.573h0A.542.542,0,0,1,405.969,291.3Zm-6.181,0a.542.542,0,0,1,.517-.572h0a.544.544,0,0,1,.517.572h0a.542.542,0,0,1-.517.573h0A.54.54,0,0,1,399.787,291.3Zm-6.184,0a.542.542,0,0,1,.517-.572h0a.544.544,0,0,1,.517.572h0a.542.542,0,0,1-.517.573h0A.54.54,0,0,1,393.6,291.3Zm-6.184,0a.542.542,0,0,1,.517-.572h0a.556.556,0,0,1,.517.572h0a.554.554,0,0,1-.517.573h0A.54.54,0,0,1,387.42,291.3Zm-6.2,0a.559.559,0,0,1,.538-.572h0a.54.54,0,0,1,.5.572h0a.538.538,0,0,1-.5.573h0A.557.557,0,0,1,381.215,291.3Zm-6.184,0a.558.558,0,0,1,.517-.572h0a.542.542,0,0,1,.517.572h0a.54.54,0,0,1-.517.573h0A.556.556,0,0,1,375.032,291.3Zm-6.184,0a.556.556,0,0,1,.517-.572h0a.542.542,0,0,1,.517.572h0a.54.54,0,0,1-.517.573h0A.554.554,0,0,1,368.848,291.3Zm-6.181,0a.556.556,0,0,1,.517-.572h0a.544.544,0,0,1,.517.572h0a.542.542,0,0,1-.517.573h0A.554.554,0,0,1,362.667,291.3Zm-6.184,0a.542.542,0,0,1,.517-.572h0a.544.544,0,0,1,.517.572h0a.542.542,0,0,1-.517.573h0A.54.54,0,0,1,356.483,291.3Zm-6.184,0a.542.542,0,0,1,.517-.572h0a.542.542,0,0,1,.517.572h0a.54.54,0,0,1-.517.573h0A.54.54,0,0,1,350.3,291.3Zm-6.184,0a.544.544,0,0,1,.517-.572h0a.542.542,0,0,1,.517.572h0a.54.54,0,0,1-.517.573h0A.542.542,0,0,1,344.116,291.3Zm-6.184,0a.544.544,0,0,1,.517-.572h0a.542.542,0,0,1,.517.572h0a.54.54,0,0,1-.517.573h0A.542.542,0,0,1,337.932,291.3Zm-6.184,0a.544.544,0,0,1,.517-.572h0a.542.542,0,0,1,.517.572h0a.54.54,0,0,1-.517.573h0A.542.542,0,0,1,331.748,291.3Zm-6.181,0a.542.542,0,0,1,.515-.572h0a.542.542,0,0,1,.517.572h0a.54.54,0,0,1-.517.573h0A.54.54,0,0,1,325.567,291.3Zm-6.186,0a.544.544,0,0,1,.517-.572h0a.542.542,0,0,1,.517.572h0a.54.54,0,0,1-.517.573h0A.542.542,0,0,1,319.381,291.3Zm-6.181,0a.542.542,0,0,1,.517-.572h0a.544.544,0,0,1,.517.572h0a.542.542,0,0,1-.517.573h0A.54.54,0,0,1,313.2,291.3Zm-6.184,0a.542.542,0,0,1,.517-.572h0a.556.556,0,0,1,.517.572h0a.554.554,0,0,1-.517.573h0A.54.54,0,0,1,307.016,291.3Zm-6.184,0a.542.542,0,0,1,.517-.572h0a.54.54,0,0,1,.5.572h0a.538.538,0,0,1-.5.573h0A.54.54,0,0,1,300.833,291.3Zm-6.2,0a.555.555,0,0,1,.517-.572h0a.542.542,0,0,1,.515.572h0a.54.54,0,0,1-.515.573h0A.553.553,0,0,1,294.63,291.3Zm-6.186,0a.558.558,0,0,1,.517-.572h0a.542.542,0,0,1,.517.572h0a.54.54,0,0,1-.517.573h0A.556.556,0,0,1,288.444,291.3Z"
                          transform="translate(-281.458 -290.723)"/>
                </g>
                <text class="b" transform="translate(0 10)">
                    <tspan x="0" y="0">10</tspan>
                </text>
            </g>
            <text class="c" transform="translate(59.915 187.63)">
                <tspan x="0" y="0">JAN</tspan>
            </text>
            <text class="c" transform="translate(123.465 187.63)">
                <tspan x="0" y="0">FEB</tspan>
            </text>
            <text class="c" transform="translate(193.83 186.63)">
                <tspan x="0" y="0">MAR</tspan>
            </text>
            <text class="c" transform="translate(264.26 186.63)">
                <tspan x="0" y="0">APR</tspan>
            </text>
            <text class="c" transform="translate(334.474 187.63)">
                <tspan x="0" y="0">MAY</tspan>
            </text>
            <text class="c" transform="translate(400.35 186.63)">
                <tspan x="0" y="0">JUN</tspan>
            </text>
            <g transform="translate(64.844 13.944)">
                <path class="d"
                      d="M367.923,320.157a71.742,71.742,0,0,1-26.715-5.194l-39.6-15.849.382-1.231,39.6,15.851a70.393,70.393,0,0,0,55.836-1.362l13.681-6.237a71.389,71.389,0,0,1,56.9-1.273c24.1,9.742,51.016,5.625,71.989-11.034l25.876-20.551a77.525,77.525,0,0,1,19.2-11.232l57.314-23.087.382,1.234L585.457,263.28a76.276,76.276,0,0,0-18.927,11.07L540.654,294.9c-21.279,16.9-48.58,21.084-73.035,11.193a70.355,70.355,0,0,0-56.085,1.257l-13.682,6.237A72,72,0,0,1,367.923,320.157Z"
                      transform="translate(-296.74 -234.589)"/>
                <ellipse class="d" cx="5.09" cy="4.986" rx="5.09" ry="4.986" transform="translate(0 58.924)"/>
                <path class="e" d="M339.524,272.777a5.091,5.091,0,1,1-5.091-4.985A5.039,5.039,0,0,1,339.524,272.777Z"
                      transform="translate(-261.409 -188.053)"/>
                <ellipse class="d" cx="5.09" cy="4.986" rx="5.09" ry="4.986" transform="translate(137.532 61.653)"/>
                <ellipse class="d" cx="5.09" cy="4.986" rx="5.09" ry="4.986" transform="translate(204.75 70.21)"/>
                <path class="f" d="M428.845,252.678a5.09,5.09,0,1,1-5.088-4.987A5.038,5.038,0,0,1,428.845,252.678Z"
                      transform="translate(-145.446 -220.496)"/>
                <ellipse class="d" cx="5.09" cy="4.986" rx="5.09" ry="4.986" transform="translate(340.718)"/>
            </g>
            <g transform="translate(64.843 35.154)">
                <path class="g"
                      d="M301.78,345.359l-.113-1.3L336.73,340.1A112.162,112.162,0,0,0,395.968,314.3l12.471-10.4c20.04-16.719,43.767-25.944,68.614-26.681l.625-.021a109.674,109.674,0,0,0,53.9-16.322c27.933-17.124,60.133-21.139,90.672-11.295l20.38,6.566-.315,1.26-20.378-6.569c-30.243-9.748-62.139-5.774-89.815,11.188A110.709,110.709,0,0,1,477.711,278.5l-.627.021c-24.612.729-48.112,9.868-67.963,26.425l-12.471,10.4a113.186,113.186,0,0,1-59.806,26.056Z"
                      transform="translate(-296.643 -240.005)"/>
                <path class="h" d="M309.964,285.791a5.091,5.091,0,1,1-5.089-4.985A5.039,5.039,0,0,1,309.964,285.791Z"
                      transform="translate(-299.784 -181.088)"/>
                <path class="i" d="M339.524,280.954a5.091,5.091,0,1,1-5.091-4.985A5.037,5.037,0,0,1,339.524,280.954Z"
                      transform="translate(-261.408 -188.895)"/>
                <path class="i" d="M369.807,262.557a5.091,5.091,0,1,1-5.091-4.985A5.039,5.039,0,0,1,369.807,262.557Z"
                      transform="translate(-222.094 -218.587)"/>
                <path class="j" d="M428.845,247.645a5.09,5.09,0,1,1-5.088-4.988A5.038,5.038,0,0,1,428.845,247.645Z"
                      transform="translate(-145.445 -242.658)"/>
                <ellipse class="g" cx="5.09" cy="4.986" rx="5.09" ry="4.986" transform="translate(340.719 11.786)"/>
                <ellipse class="g" cx="5.09" cy="4.986" rx="5.09" ry="4.986" transform="translate(204.751 28.053)"/>
            </g>
        </g>
    </g>
</svg>