<svg xmlns="http://www.w3.org/2000/svg" xmlns:xlink="http://www.w3.org/1999/xlink" width="244.332" height="36.401" viewBox="0 0 244.332 36.401"><defs><style>.a{fill:url(#a);}</style><linearGradient id="a" y1="0.5" x2="1" y2="0.5" gradientUnits="objectBoundingBox"><stop offset="0" stop-color="#00bfff"/><stop offset="1" stop-color="#04e296"/></linearGradient></defs><path class="a" d="M308.192,219.494q-1.172,0-2.358-.068a39.478,39.478,0,0,1-27.5-13.384l1.961-1.73a37.133,37.133,0,0,0,52.667,3.053l14.981-13.459a39.694,39.694,0,0,1,36.206-8.995l35.736,8.932a37.238,37.238,0,0,0,18.272-.065l36.6-9.429a39.737,39.737,0,0,1,21.416.447l26.493,8.009-.755,2.5L495.414,187.3a37.139,37.139,0,0,0-20.01-.416l-36.6,9.426a39.84,39.84,0,0,1-19.555.071l-35.736-8.935a37.076,37.076,0,0,0-33.828,8.407L334.7,209.31A39.437,39.437,0,0,1,308.192,219.494Z" transform="translate(-278.33 -183.094)"/></svg>