<svg xmlns="http://www.w3.org/2000/svg" xmlns:xlink="http://www.w3.org/1999/xlink" width="227.516" height="47.73" viewBox="0 0 227.516 47.73"><defs><style>.a{fill:url(#a);}</style><linearGradient id="a" y1="0.5" x2="1" y2="0.5" gradientUnits="objectBoundingBox"><stop offset="0" stop-color="#00bfff"/><stop offset="1" stop-color="#04e296"/></linearGradient></defs><path class="a" d="M150.68,226.39l-1.553-2.1L174.1,205.834a27.454,27.454,0,0,1,30.934-1.053,24.682,24.682,0,0,0,28.759-1.555l23.152-18.593a27.437,27.437,0,0,1,37,2.6l19.074,20.3a24.817,24.817,0,0,0,34.593,1.38l27.272-24.747,1.757,1.934-27.272,24.747a27.435,27.435,0,0,1-38.256-1.524l-19.072-20.3a24.811,24.811,0,0,0-33.464-2.347l-23.152,18.591a27.292,27.292,0,0,1-31.8,1.723,24.828,24.828,0,0,0-27.975.949Z" transform="translate(-149.127 -178.661)"/></svg>