<svg xmlns="http://www.w3.org/2000/svg" xmlns:xlink="http://www.w3.org/1999/xlink" width="254.939" height="46.829" viewBox="0 0 254.939 46.829"><defs><style>.a{fill:url(#a);}</style><linearGradient id="a" y1="0.5" x2="1" y2="0.5" gradientUnits="objectBoundingBox"><stop offset="0" stop-color="#00bfff"/><stop offset="1" stop-color="#04e296"/></linearGradient></defs><path class="a" d="M401.456,225.822l-1.639-2.036,17.9-14.421a23.191,23.191,0,0,1,27.951-.808,20.527,20.527,0,0,0,20.776,1.811L525.976,181.9a23.093,23.093,0,0,1,16.531-1.315l22.449,6.632a20.6,20.6,0,0,0,13.269-.565l15.522-6.057a23,23,0,0,1,23.965,4.433L654.756,218.7,653,220.639,615.954,186.96a20.4,20.4,0,0,0-21.26-3.931l-15.519,6.057a23.218,23.218,0,0,1-14.96.635l-22.449-6.632a20.44,20.44,0,0,0-14.662,1.166l-59.531,28.472a23.136,23.136,0,0,1-23.424-2.044,20.587,20.587,0,0,0-24.791.719Z" transform="translate(-399.817 -178.993)"/></svg>