<svg xmlns="http://www.w3.org/2000/svg" width="10.52" height="17.757" viewBox="0 0 10.52 17.757"><defs><style>.a{fill:#f8e329;}</style></defs><path class="a" d="M-9.646,75.757H-19.819c-.051-.358-.1-.715-.15-1.074-.018-.136-.021-.274-.031-.412V73.8c.011-.165.02-.329.033-.494a8.286,8.286,0,0,1,.666-2.678,6.229,6.229,0,0,1,2.22-2.74,1.829,1.829,0,0,0,.394-.36,1.422,1.422,0,0,0,.264-1.388,1.591,1.591,0,0,0-.674-.859c-.127-.086-.255-.172-.374-.272a7.271,7.271,0,0,1-2.5-5.227c-.011-.134-.019-.269-.029-.4v-.435c.008-.111.014-.221.023-.332.017-.2.035-.407.052-.61H-9.555c.01.114.021.227.03.341.016.2.03.4.045.6v.435c0,.041-.012.082-.013.124a8.326,8.326,0,0,1-.334,2.079,6.589,6.589,0,0,1-2.553,3.706,2.031,2.031,0,0,0-.412.391,1.421,1.421,0,0,0-.109,1.685,2.08,2.08,0,0,0,.54.558,7.128,7.128,0,0,1,.771.632A7.461,7.461,0,0,1-9.508,73.4c.01.123.019.245.028.368v.544c0,.026-.01.052-.012.079-.026.283-.048.567-.078.85C-9.589,75.41-9.62,75.583-9.646,75.757Zm-.866-1.216c.006-.116.014-.221.017-.327a7.137,7.137,0,0,0-.405-2.6,5.1,5.1,0,0,0-1.932-2.624,2.866,2.866,0,0,1-.732-.691,2.77,2.77,0,0,1-.418-2.606,2.684,2.684,0,0,1,1.089-1.441,5.04,5.04,0,0,0,1.717-2.015,6.978,6.978,0,0,0,.682-2.831c0-.062,0-.124,0-.182h-8.49c0,.024,0,.042,0,.06a7.024,7.024,0,0,0,.642,2.863A4.924,4.924,0,0,0-16.635,64.2a2.854,2.854,0,0,1,.763.73,2.782,2.782,0,0,1,.462,2.278,2.706,2.706,0,0,1-1.185,1.738,4.716,4.716,0,0,0-1.367,1.4,6.834,6.834,0,0,0-1.021,3.928c0,.086.01.172.015.258Z" transform="translate(20 -58)"/><path class="a" d="M115.994,770.642c.041-.184.074-.361.122-.535a3.752,3.752,0,0,1,.769-1.456A.136.136,0,0,1,117,768.6q2.206,0,4.412,0a.157.157,0,0,1,.107.049,3.88,3.88,0,0,1,.839,1.782c.014.068.023.137.036.211Z" transform="translate(-113.938 -754.911)"/><path class="a" d="M163.108,278.189h4.97c-.017.025-.029.045-.043.064a3.426,3.426,0,0,1-1.1.94,3.434,3.434,0,0,0-1.275,1.217l-.043.071-.015.019c-.013-.019-.026-.036-.037-.053a3.6,3.6,0,0,0-1.408-1.312A3.122,3.122,0,0,1,163.108,278.189Z" transform="translate(-160.34 -274.077)"/></svg>