<svg xmlns="http://www.w3.org/2000/svg" width="33.34" height="32.604" viewBox="0 0 33.34 32.604">
    <defs>
        <style>.a{fill:#d5d5d5;}</style>
    </defs>
    <path class="a"
          d="M11.31,5.142,8.919,2.751A17.431,17.431,0,0,0,2.03,15.876H5.374A14.121,14.121,0,0,1,11.31,5.142ZM32.026,15.876H35.37A17.537,17.537,0,0,0,28.481,2.751L26.107,5.142A14.2,14.2,0,0,1,32.026,15.876Zm-3.294.836c0-5.133-2.742-9.43-7.524-10.567V5.008a2.508,2.508,0,0,0-5.016,0V6.145c-4.8,1.137-7.524,5.417-7.524,10.567v8.36L5.324,28.416v1.672H32.076V28.416l-3.344-3.344ZM18.7,35.1a2.929,2.929,0,0,0,.669-.067,3.393,3.393,0,0,0,2.408-1.973,3.357,3.357,0,0,0,.251-1.3H15.339A3.368,3.368,0,0,0,18.7,35.1Z"
          transform="translate(-2.03 -2.5)"/>
</svg>