<svg xmlns="http://www.w3.org/2000/svg" width="8" height="8" viewBox="0 0 8 8">
    <defs>
        <style>.a{fill:#508ff4;}.b,.c{stroke:none;}.c{fill:#fff;}</style>
    </defs>
    <g class="a" transform="translate(2 2)">
        <path class="b"
              d="M 2 5 C 0.3457899987697601 5 -1 3.654210090637207 -1 2 C -1 0.3457899987697601 0.3457899987697601 -1 2 -1 C 3.654210090637207 -1 5 0.3457899987697601 5 2 C 5 3.654210090637207 3.654210090637207 5 2 5 Z"/>
        <path class="c"
              d="M 2 0 C 0.8954300880432129 0 0 0.8954300880432129 0 2 C 0 3.104569911956787 0.8954300880432129 4 2 4 C 3.104569911956787 4 4 3.104569911956787 4 2 C 4 0.8954300880432129 3.104569911956787 0 2 0 M 2 -2 C 4.205609798431396 -2 6 -0.2056097984313965 6 2 C 6 4.205609798431396 4.205609798431396 6 2 6 C -0.2056097984313965 6 -2 4.205609798431396 -2 2 C -2 -0.2056097984313965 -0.2056097984313965 -2 2 -2 Z"/>
    </g>
</svg>