<svg xmlns="http://www.w3.org/2000/svg" width="319.527" height="208.303" viewBox="0 0 319.527 208.303">
    <g id="Group_4826" data-name="Group 4826" transform="translate(-661.973 -407.49)">
        <g id="uzbekistan" transform="translate(661.973 407.502)">
            <path id="UZ-AS"
                  d="M114.974,3.079,113.6,5.669l-.4,1.384-.246,1.541.815,1.138.4,1.218-.73,1.057-1.138,2.11-.569.892.9-.4.65-.815.569-.4,1.541.242.976.242.081,1.3-1.138.161-.081,3.328-.811-.407-.73.165-.734.811.246.976,1.3,1.053,1.218.73-.407,1.3v1.622l-.569,1.218-1.138.407-.73-.407L112.388,25h-.654v1.38l.488.65.081,2.518.165,1.626,1.218.73.892-.972.976-1.707.73-1.626.972-.569,1.218.65.976-.323-.327-1.138-.488-1.057-.323-1.864.242-1.057.569-.569.73-.081h.9l.4-1.707,1.138-2.437,1.3-2.191.815-2.356-.145-3.119h0L147.17,26.318h0l-1.569.145.408.811.65.569.407.569-.327,1.541L145.6,31.983l-1.868,1.868-2.518,2.033-.65,1.38.408.73-.488.73h-1.38l-.242,1.057-2.844,1.138-1.949.65-2.029.4-1.465-.488-.811.246-1.541.323-.488-.4-.976-.569-1.46.892-1.787-.081-2.437-.242-1.218-.165-1.053-.892-2.114-.323-.73-.734-.892-.4-.407-1.465,1.138-.73.73-.892-.323-1.465-.65-.4-1.057.488-2.029.65-.734.323-.972-.081-.65.161-.408.815-.811-.246-1.057-.811-1.218-.081L105,34.746l-1.218-.569-.9-1.057-.892-2.11L101.83,28.9l1.218-3.409.161-1.057-.811-1.461-.488-1.138-.081-2.437.161-1.868.811-2.191,1.218-1.949.488-2.275,1.057-1.057.081-2.352.811-1.3L108,5.02l.081-1.949.65-1.3L108.8.34h0"
                  transform="translate(-60.847 -0.34)" fill="#e3e9ef" stroke="#fff" stroke-width="0.5"/>
            <path id="TJ-SU"
                  d="M674.638,289.973l-.609-.714-.484-.21.109-.149-.294.222-.109.194.077.27.408.012.492.363,1.283,1.739.081-.141-.258-.637-.311-.4Z"
                  transform="translate(-401.726 -172.479)" fill="#e3e9ef"/>
            <path id="UZ-AN"
                  d="M732.392,299.793l-.044-1.456-.125-.339-1.618-.516-.908-.182-.1.069h-.133l-3.732-.633-.9-1.4-.25-.262-1.219-.629-1.678-.242-.081.585-1.222-1.808h0l.767-.488-.888-1.077.819-.767.48-.323,3.466-.884,1.485.012.23.1.294.226,1.344.3.589.06,1.969-.178.214-.109.161-.182.508-2.368h0l.1.06.27,0,1.15-.545.307-.073.492-.371.456-.5.278-.028.061.073.533.141.391.274.359.02.319.161.347-.036.315.069.266.129.1.472-.04.262-.331.613,0,.089.073.089.06-.008.186-.29.093-.02.1-.012.19.1.169.157.533.912.234.278.081.807.31.222.484.141.536.262.633.234.222-.081.734.117.379-.161.371-.077.274.085.892-.226.29.008.331.182.613.674.153.424.069.061.266.065.206-.016.262-.1.077-.121.258-.133.161-.194.234-.008.141-.085-.061-.218-.234-.161-.141-.2.174-.573.093-.093.173,0,.408.589.363.081.456.307.383-.21.605.028.173.153.093.391-.173.7-.174.246-.181.125-1.162.488-.67.1-.254.351-.468.323-.565.315-.327.069-.02.093-.351.081-.541.3-.4.387-.621.2-.456-.061-.319.044-.125.145-.02.129.057.177.153.186.012.137-.3.246-.04.169.073,1.105-.028.432-.262.085-.21-.121-.387-.4-.605-.137-.129.149-.02.307-.351.254-.057.1-.085.565-.234.432-.27.065-.169-.016-.561-.452-.593-.028-.279-.153-.367-.351-.206-.073-.274.117-.085-.016-.553-.674-.222-.4-.561-.472-.161-.077-.4.173-.444,0-.161.218.06.113.452.153.129.125.186.416.424.129.165.226-.016.222-.141.161-.416.04-.109.077-.068.206.056.182.436-.044.1.149.093.593.2.214.1.3-.46,1.077.113.335-.028.258-.069.065-.121.024-.6-.153-.182-.109-.625-.646-.262-.186-.117-.04-.323.121-.129-.085-.2-.286-.117-.085-.363,0-.109-.044-.073-.161.133-.456-.024-.1-.182-.109Z"
                  transform="translate(-429.77 -170.66)" fill="#e3e9ef"/>
            <path id="UZ-BU"
                  d="M340.505,310.442l-1.521,1.448-1.352.9-.23.044-1.775,1.9-.141.416.06.347.286.484.335.355.331.472.093.206-.113.246-7.311,2.679-2.263,2.514h0l-.859-.928-.165-.012-.476.121-.847.488-.4.1-.424.008-.557-.073-.343-.169-1.19-.98-1.158-.807-2.739-2.106-.734-.472-1.888-1.388-.529-.521-.464-.561-.117-.254-.165-.149-.315-.5-1.44-1.4-.815-.867-1.6-1.134-1.767-1.057-1.8-1.271-1.711-1.122-4.139-2.945-2.808-1.925-5.781-4.248-.476-.444-.367-.52-.065-.214-.081-.363.024-.222-.117-.282-.052-.706-.569-.835.008-.262.278-.48.032-1.061-.153-.408-.057-.5-.238-.823-.024-.46-.093-.311.016-.242.145-.367-.012-.407-.3-.541-.468-.424-.29-.428-.024-.206.2-.621.117-.593-.016-.125-.533-.21-.533-.339-.533-.585-.512-.23-.533-.351-.161-.226h0l2.534-3.07,1.852-2.07.319-1.533.012-.621-.274-.464-2.384-2.7-1.307-1.343h0l4.414-2.042-5.56-7.738h0l.226-.113,1.481-.371,5.467-1.3.424-.032,1.348,2.7.561.831.867.936.964.625,1.428.767.633.637.839,1.755.565,2.078.23.561.355-.036.182-.149.823-.02,1.275.367,2.171.932,3.421,1.856,3.966,2.3.855.674.226.424.137.6-.194.9,1.372-.036,1.065-.093.222-.077,2.171-4.918.42-.44.884-.472.355.061.674.779.04,3.07,6.532.763.077-.2.331-1.812.23-.077,2.025-.234,1.529-.024.916-.153.456-1.081.29-.847.182-.077.391.089.319,1.142.863,4.083.46.444.323.169.416.137,3.482.48,2.392.254,3.215.46-.565,3.736-1.61,1.134-.069.415-.585,1.666-1.352,1.67-.258.246-.379.153-1.553-.093-1.17-.218-.811-.4-.331-.319-.807-.525-.831-.048-.448.194-.145.25.145,1.339-.182,1.759-.52,2.3-1.021,1.929-.859,1-1.775,1.077-.359.133-.573,1.1,1.723,2.336.48.464,2.848,1.077.436.024,1.291-.315,1.981,1.489,1.771,3.788.145.464Z"
                  transform="translate(-170.648 -155.907)" fill="#e3e9ef"/>
            <path id="UZ-FA"
                  d="M667.208,314.758l.04-.266-.093-.222-.3-.266-1.174-.529-.658-.133-.4-.161h-.129l-.363.173-.173-.012-.186-.085-.133-.149-.185-.448-.117-.125-.113-.04-.06-.3-.367-.714-.024-.246.052-.081.327-.089.4-.327.48-.089.444-.23.827-.29h.323l.19-.165.049-.327.177-.178.057-.359.077-.161.161-.089.238-.032.31.028.194-.145.29-.008.173-.065.351-.448.448-.9.145-.153.262-.073.274-.294.206-.069.06-.113.165-.032.166-.2.391-.089.161.113.129.012.02-.266-.073-.4.125-.093.113.1.266-.016.177-.234.121-.4.234-.214.024-.1h0l.137-.036.1-.1,1.965-.5,1.36-.246,2.727-.04v.089l-.149.21-.549.67.335.795.754.75,2.255,1.1.161.032.3-.169,1.218-1.15.307-.4.3-.585.5-.323,1.658-.9,1.388-.416h0l1.223,1.807.081-.585,1.678.242,1.218.629.25.262.9,1.4,3.732.633h.133l.1-.069.908.181,1.618.516.125.339.044,1.456h0l-.2.016-.432-.1-.157.032-.206.557-.121.2-.254.242-.186.1-.149.028-.238-.081-.359-.238-.186.42.182.69-.057.137-.258.286-.028.23-.117.161-.553.165-.42.541-.206.153-.323.456-.48.21-.375.347-.048.1.085.2.4.093.4.359-.028.2-.448.416-.186.436-.117.129-.266.133-.25-.008-.512-.371-.815-.19-.194.157-.052.194.02.109.3.456.008.214-.3.2-.218-.012-1,.642-.533.169-.371.266-.141.024-.1-.057-.186-.343-.173-.206-.1-.028-.145-.161-.06-.145L688,317.1l-.077-.327-.274-.367-.21-.145-.311-.032-.5.048-.044.339.1.577-.085.383.032.226-.048.081-.117-.012-.327-.387h-.4l-.222.077-.371-.234-.714-.319-.089-.218.077-.545-.1-.21-.525-.012-.621-.161-.254-.2-.44-.5-.165-.109-.2-.06-.2.089-.25.024-.065-.125.036-.157-.129-.1-.617.258-.3.04-.109-.04-.06-.109-.008-.4-.621.044-.408-.137-.4-.036-.335.044-.557.186-.4-.008-.246.085-1.033.718-.787.141-.835.363-.181.117-.057.109.125.371-.044.391-.96.028-.787.141-.109-.036-.686.508-1,.444-.638.133-.565.048-1.263.278-.335-.137-.476-.863-.129-.355-.29-.157-.214-.379.052-.044.028-.516.149-.4-.222-.706Z"
                  transform="translate(-395.474 -181.207)" fill="#e3e9ef"/>
            <path id="UZ-JI"
                  d="M526.959,315.218l-.194.1-.085.621-.129.411-.331.295-.436-.153-.464.1-1.194-.19-.75.327-.157-.048-.319-.307-.206-.1-.573-.129-.714-.085-.508.057-.375.1-.3-.052-.412-.238-.3.04-.9-.064-.391-.194-.3-.077-.44.036-.242-.061-.444-.343-.367-.149-.553-.032-.371.04-.754-.339-.387-.355-.557-.032-.98-.666-.283.157-.488.129-.779-.335-.161,0-.355.412-.44.153-.258.182-.379.617-.234.065-.577.012-1.606.6-.048.274.081.65-.165.206-.9-.222-.186.044-.141.323-.008.528.129.206h0l-1.828-1.541-.416-.424-.262-.387-.085-.383-.008-1.678.04-.149,1.3-2.114.307-.367.278-.218.871-.416.621-.153.525-.06-.032-.412-.432-2.4-.085-.1-4.789-1.021-1.941-.161-.855-.323-2.352-1.586-.141-1.5.04-.141.5-.117.1-.065.182-.541.028-.327-.581-1.134-.75-.67-.339-1.654-.04-1.586.056-.311.335-.738,0-.444-.387-.88-1.86-.04-3.143-.371h0l.295-.722,1.787-3.466L494.226,287l.113-.3-.633-2.768-.093-.214-.1-.093-1.723-.424-.383-.234-.29-.512-.456-4.293,2.707-.089.117-1.182.089.016.21-1.92h0l7.02.529,1.872.21,1.1,0,.343.226.351.052.5-.165.512-.081,6.217.19.569.52.351.093.827,1,1.339,1.243.593-.524.339.48,1.231-.8.557.521.238-.1.319.19-1,.214-.569.6.561,1.392-.6.593.032,2.106-1.642.061-.294.92.581.807.984.274,2.328,1.372,1.448,1.626,1.529.541.177.153h0l-.068,1.146-.137.246-.75-.04-.847.218-.194,1.973.064.109.851-.412.133-.04.064.081-.061.311-.311.807-2,4.454-.081.613.061.387.137.363.266.391.129.02,2.643.125,1.844-.069,1.622-.331.92-.319,2.877-.662.125.274-.407,2.586h0l-.625.113-.036.056-1.166.339-.1.242.347.323,1.057.621.5-.012.867-.182.529-.226,1.158-.327.5-.222,1.384-.359.678-.085,1.271-.044.339.262.165.516.181.96-.129.266-.3.024-.617-.145-.363,0-.3.012-.613.141-.472.355-.085.42-.06.048-.186-.1-.121-.52-.294-.444-.262-.04-.234.081-.1.113-.012.214.141.23.379.379.02.254-.165.545.012.121.605.565,1.053,1.307.218.444.016.3-.081.278-.287.29-.327.04-.25-.125-.242-.379-.028-.718-.545-1.3-.291-.355-.161-.028-.19.089-.048.161.032.444.42.8.327.775.012.278-.145.323-.145.109-.371.085-.121.157-.109.577-.1.089-.186.044-.226-.169-.125-.512-.315-.359-.186-.052-.593.5-.206-.121-.484-.061-.036.464.121.674-.129.529-.2.343-.1.371-.121.226-.258.109-.254.016-.17.206.109.258.758,1.081-.109.694-.956,1.081Z"
                  transform="translate(-292.803 -164.181)" fill="#e3e9ef"/>
            <path id="UZ-NG"
                  d="M699.427,266.028l-.2-.339-.186-.117-.182-.028-.182.1-.424-.141-.307-.012-.758.549-.141.032-.274-.121-.7-.452-.46-.125-.492-.056-.468.319-.186-.089-.226-.02-.654-.262-.129-.165.008-.355-.226-.024-.149-.081-.028-.085.258-.807.371-.65.315-.323.19-.331.226-.545-.02-.1-.436-.234-.343-.416-.113-.262.052-.524-.056-.149-.153-.113-.165.1-.137.226-.327.069-.1-.069-.024-.077.1-.525-.25-.428-.565-.545-.424-.892-.149-.04-.056.048-.044.682-.069.1-.125.028-.085-.165-.04-.274-.125-.109-.153-.012-.254.182-.048.161.165.266-.024.226-.109.085-.169-.1-.165-.286-.04-.186.036-.174.339-.444.185-.335.028-.19-.1-.569.052-.121-.024-.3.173-.363-.141-.246-.46-.02-.145.04-.311.29-.307.549-.178.2-.508.173-.1.141.02.169.129.1.46.044.23.093.2.315.052.274-.137.492-.177.327-.016.165.323.5-.117.266-.266.29-.145.282-.109.4-.089,0-.145-.1-.1.1-.129.29-.242.2-.068.234-.069.016-.1.383-.153.129-.242-.065-.246-.278-.161-.089-.355-.008-.169.141-.27.057-.331-.206-.129.028-.581.694-.02.165.1.311-.1.343v.214l.073.149.347.149.121.29-.359.807-.129.8-.286.65-.012.149-.416.452-.214.016-.1-.069-.06-.117-.093-.714-.093-.2-.319-.335-.157-.077-.218,0-.206.121-.141.165-.093.569-.161.307-.323.3-.206.048-.153-.044-.057-.121.089-.964-.1-.577-.1-.17-.383-.254-.121-.016-.25.117-.052.161.016.218-.125.093-.113-.024-.173-.428-.129,0-.141.121-.19.29-.194-.008-.1.06-.335.355-.2.117-.161.012-.488-.174-.165-.149-.246-.412-.323-.077-.5-.323-.238.012-1.073.73-.226-.081-.218-.5-.371-.347-.347-.218-.234-.343-.214-.2-.109-.016-.286.129-.19.274-.335.831-.121.178-.133.064-.347-.141-.2-.246-.089-.363.012-.44.3-.383.073-.242-.04-.141-.25-.367-.1-.3-.028-.722.169-.371.1-.468-.2-.827-1.029-1.646-.169-.472-.077-.064-.488-.137-.125.012-.46.343-.5-.024-.613.194-.4.339-.165.3-.678.561h-.839l-.2-.218h0l-.274.779-1.2,1.658.27,2.945.771,1.057.266.541.1.94.012.706-.061.355.081.169h0l.182-.008.294.161.109.274.444.359.028.25.129.1.355.48.274.008.222.553.407.5.157.359.448.666.186.476.109,0,.049.149.391.335.226.553.335.125.214.19.294.4-.194.153-.069-.036-.117.073.032.129-.077.117-.149.04-.23-.1-.19-.488-.149.5.016.286.129.258.335-.1.5.04.343.182-.113.073.363.016.174.093.4.343.089.2h0l.137-.036.1-.1,1.965-.5,1.364-.246,2.723-.04v.089l-.149.21-.548.67.335.795.758.746,2.251,1.1.161.032.307-.169,1.218-1.15.307-.4.3-.585.5-.319,1.658-.9,1.388-.416h0l.767-.488-.888-1.077.819-.762.484-.323,3.466-.884,1.481.012.234.1.295.226,1.343.3.589.061,1.969-.177.214-.109.162-.186.508-2.364h0l-.169-.1-.181-.234.065-.133.508-.121.214-.165.19-.411-.182-.331-.311-1.868ZM671,271.954l-1.283-1.739-.492-.363-.408-.012-.077-.274.109-.19.295-.226-.109.153.484.206.609.714.7.948.258.637Z"
                  transform="translate(-397.217 -152.734)" fill="#e3e9ef"/>
            <path id="UZ-NW"
                  d="M359.148,180.5l-.21,1.92-.089-.016-.117,1.182-2.707.089.456,4.293.29.512.383.234,1.723.424.1.093.093.214.633,2.768-.113.3-1.259,2.146-1.787,3.466-.295.722h0l-.508-1.4-.75-1.073-.391-.452-.234-.109-.851.775-.948.52-.557.044-.738-.1-.42-.319-.416-.625-.48-.036-.448.077-.367.436-.867,1.888-.238,1.981.1.141.218.081.149.29-.069.916-.355,2.469-.347.541-.928,2.449.081.4.323.04.577-.371.331.028.073.182-.057.452-.173.25-1.408,1.327-.658.307-3.595.779-.492-.081-2.171-.928-.843-.46-.186-.42-.4-.625-2.211-.835-.408-.069-.21.113-.141.23-.065.282.02.391-.169,2.34-.738,2.235-.286.52-.21.121-.238,0-1.15-.355-.4-.2-3.49,1.178-.2.141-.032.149.133.311.6.617.391.327.379.585.545,2.106-.069.391-.206.589-.472.944-.016.254.069.327.327.73.855,1.533h0l-.161.173-.214.085-1.049.161-.561.149-.323.153-.472.327h0l-.117-1.364-.145-.464-1.771-3.788-1.981-1.489-1.291.315-.436-.024-2.848-1.077-.48-.464-1.723-2.336.573-1.1.359-.133,1.775-1.077.859-1,1.021-1.928.52-2.3.181-1.759-.145-1.339.145-.25.448-.194.831.048.807.524.331.319.811.4,1.17.218,1.553.093.379-.153.258-.246,1.352-1.67.585-1.666.069-.416,1.61-1.134.565-3.736-3.216-.46-2.392-.254-3.482-.48-.415-.137-.323-.169-.46-.444-.863-4.083-.319-1.142-.391-.089-.182.077-.29.847-.456,1.081-.916.153-1.529.024-2.025.234-.23.077-.331,1.812-.077.2-6.532-.763-.04-3.07-.674-.779-.355-.06-.884.472-.42.44-2.171,4.918-.222.077-1.065.093-1.372.036.194-.9-.137-.6-.226-.424-.855-.674-3.966-2.3-3.421-1.856-2.171-.932-1.275-.367-.823.02-.182.149-.355.036-.23-.561-.565-2.078-.839-1.755-.634-.637L284.747,180l-.964-.625-.868-.936-.561-.831-1.348-2.7-.424.032-5.467,1.3-1.481.371-.226.113h0l-8.44-11.567,5.184-2.865-2.719-4.9.508-6.362,11.16-21.064-6.229-1.686-2.36-4.232h0l17.09-3.328,8.251-1.456,1.4.274,1.214.145,3.913.424,2.393.153.968.169,5.721.44,5.5.27.081-.061.343-.016,4.244-2.086,2.824-1.235,1.767-.884.831-.206.436-.044.674.028.335.129.307.234.4.46,2.312,5.092.815.771,1.452,1.509,4.39,3.905.605,2.449,2.679,8.63,5.071-2.388.141,12.628-.02,2.909-.234-.073-.976-.5h-.1l-.04,2.663-.367.444-.121,6.713.028.867,9.739,1.178,1.4,16.017Z"
                  transform="translate(-158.168 -69.694)" fill="#e3e9ef"/>
            <path id="UZ-QA"
                  d="M401.151,380.8l.472-.327.323-.153.561-.149,1.049-.161.214-.085.161-.174h0l.278.065,7.081.214.6-.073.529-.222L413,379.3l.077-.109.016-.133,1.739.355,1.331,1.537,1.118,1.876.036.6.089.085.29.1,1.243.315.617-.016.892-.557,1.319-.674,3.046-.754.254.065.472.3.666.581.662.464.278.133.121,0,1.469-.629.331-.387.444-.718.335-.383.327-.113.48-.024,3.458.617.254.27.2.533-.044.508-.186.686.024.234.133.194.375.214.763.061,1.565-.1.331-.085.169-.194.044-.141-.028-.718.174-.194.355-.02,1.8.512,1.033.44,1.549.48.666.129.4-.093h0l.153.637.561.972.294.3.387.214.71.149.25.165.343.117.323.008.416-.089.436.077.411.19.262.674.23.093.642.032.113.117,0,.23-.141.206-.085,1.009.177.508.053.827.157.226h0l-.323.331-.4.234-1.61.093-.347.1-.206.1-.27.23-.182.339-.024.161.218,1.267.412.847.153.186.06.21.052,1.695-.541,1.735-.218-.073-.569-.577-.4-.129-.577-.028-.46.133-.182.137-.238.258-.327.524-.48.9-3.587,3.583-.29,1.352-.065.613-.149.565-.182.351-.976.98-.738.516-1.428.746-4.672,4.882-.173.5-.42,1.723.109.363h0l-.964-1.126-.424-.27-.6-.246-1.287-.141-1.061.331-.23.024-.508-.133-.5-.432-1.126-.662-.738-.835-.52-.94-.19-.121-.767-.044-1.412-.415-.254-.161-.2-.391-.472-.161-.351-.052-.307-.323-.19-.069-.553.028-.335-.109-.363-.242-.771-.791-.363-.1-.432,0-.391.109-.294.565-.226-.028-.056.04-.065.258-.149.069h-.214l-1.888-.387-4.006-1.581-.787-.452-2.586-1.666-.746-.6L402.934,404l-3.07-3.066-.234-.157-1.1-.5-1.412-.537-1.186-.553-.7-.508-.246-.266-3.623-2.239-1.1-.767-2.235-2.07-.48-.528h0l2.263-2.513,7.311-2.679.113-.246-.093-.206-.331-.472-.335-.355-.286-.484-.061-.347.141-.415,1.775-1.9.23-.044,1.352-.9Z"
                  transform="translate(-231.293 -226.264)" fill="#e3e9ef"/>
            <path id="UZ-QR"
                  d="M63.665,9.781l.141,3.115L63,15.251l-1.3,2.195-1.138,2.437-.407,1.707h-.892l-.73.081-.569.569L57.718,23.3l.327,1.868.488,1.057.327,1.138-.976.327-1.218-.65-.976.569-.73,1.626-.976,1.707-.892.976-1.218-.73-.161-1.626L51.63,27.04l-.488-.65V25h.65l.488,1.138.73.407,1.138-.407.569-1.218V23.292l.407-1.3-1.222-.73-1.3-1.057-.242-.976.73-.811.73-.161.811.407.081-3.328,1.138-.161-.081-1.3-.976-.242-1.541-.242-.569.407-.65.811-.892.407.569-.892,1.138-2.11.73-1.057L53.171,9.74,52.36,8.6,52.6,7.061l.407-1.38,1.372-2.594h0l9.283,6.693ZM48.2.34l-.073,1.432-.65,1.3L47.4,5.02,45.86,6.4l-.811,1.3-.081,2.356-1.057,1.057-.488,2.275-1.218,1.949-.811,2.191-.161,1.868.081,2.437.488,1.138.811,1.461-.161,1.057L41.233,28.9l.161,2.11.892,2.11.892,1.057,1.218.569,1.626.65,1.218.081,1.057.811.811.242.407-.811.65-.161.976.081.73-.327,2.029-.65,1.057-.488.65.407.327,1.46-.73.892-1.142.738.407,1.46.892.407.73.73,2.11.327,1.057.892,1.218.161,2.437.242,1.787.081,1.46-.892.976.569.488.407,1.541-.327.811-.242,1.46.488,2.029-.407,1.949-.65,2.844-1.138L78.5,38.72h1.38l.488-.73-.4-.726.65-1.38,2.518-2.029L85,31.987l1.138-2.029.327-1.541-.407-.569-.65-.569L85,26.467l1.565-.141h0l8.747,6.314.892,2.844,2.449,2.473,2.578,3.111.117.258.258.238,1.021,1.214,2.3,2.828,6.79,8.432.658.629.222.02h0l2.36,4.236,6.225,1.686-11.16,21.06-.508,6.362,2.719,4.9L107.052,95.8l8.44,11.567h0l5.564,7.738-4.414,2.041h0l-1.029.488-.262-.077-.109-.089-1.84-2.99-.605-1.118-3.228-3.554-1.243-.771-1.42-.75-3.611-.831-1.226-.008-.25.081-.561.311-.315.359-.472.928-.206.754-.29.311h-.6l-.908-.581-.1-.468-.149-.351-.815-.916-.286-.246-.3-.117-.871-.145-.569-.234-2.4-1.832-3.32-2.949-.633-.605-1.352-1.573L85.58,98.226,85.3,98.1l-.27-.262-.149-.186L83.64,95.478l-.165-.993-.016-1.061-.069-.234L83.232,93l-2.13-.452-1.719.561-.767.339-1.077,2.11h0l-.089-.214-.2-.242-.222-.157-.976-.335-.327-.206-.718-.884-.069.016-.133-.141-.355.081-.508-.5-.077-.327.077-.137.226-.182,1.138-.081.141-.182-.081-.323-.206-.295-.165-.391-.089-.379-.065-.916-.508-.662-.012-.27.073-.194.44-.234.169.077.343.04.186-.044.182-.173.1-.157.008-.258-.2-.48-.194-.226-.4-.242-.706-.1-.234-.1-.331-.286L73.424,86l-.274-.549L72.9,85.23l-.795-.258-.42-.339-.125.222-.186.577-.145.141-.2,0-.726-.222-.274-.141-.186.008-.218-.085-.795-.016-.633.149h-.609l-.541.065-2.99.04-.23-.182-.295-.565-.262-.121-.355-.428-1.63-1.626-.016-.161.186-.5-.044-.5L60.03,79.5l-.19-.186-.448-.266-.161-.024-.44.121-.387.311-.23.1-1.049-.069-.282-.089-.637-.347-.916-.266-.27-.129-.7-.605-1.69-1.856L50.69,74.035l-1.243-1.573-.194-.173-.012.343-.125.476.04.222.359.359.016.117-.069.21-.137.089-.169,0-.222-.125h-.254l-.206.254V74.3l.278.23.1.169-.169.88-.125.2-.2.121-.464-.149-1.069.2-.432.024-.533-.258-.488-.1-.48-.23-.6-.165-1.17-.242-.363.012-.573.23-.42.242-.94.783-.25.024-.165.141-.073.278.129.307.75.545.956.537.4.153.545.1.182.218,1.077,2.5.524.827.23.274.077.379-.016.488.178.161.214-.052,1.271.8.387.319.052.286-.206.42-.149.1-.173.008-.851-.2-.754.153-.077-.27.048-.815-.044-.424-.327-1.154-.286-.541-.359-.4-.5-.339-1.957-.5-.323.02-.88.456-.524.194-.077-.04-.077-.291-.371-.262-.117-.149-.109-.484-.343-.3-.387-.073-.577.125-.4.274-.214,0-.109.117-.161.738-.117.3-.129-.052-.3-.347-.178-.044-.27.089-.089.157-.113.625.137.315.359.331.178.29.133.436-.008.218-.149.424.012.569-.1.448.048.625-.081.65-.073.242-.137.157-.19.065-.343-.012-.67-.278-.178.04-.113.21-.137.484.282.484.178.444-.077.169-.351.048-1.235-.21-1.045.359-.714.375-.3.073-.242-.008-.654-.4-.754-.149-.924-.073-2.086.113-.791.294-1.017.5-.884.646-.508.44-.452.65-.165.351-.274.641-.432,1.343-.246.343-.456.444-.286.173-.553.206-.871.258-.295.178-.347.319-.371.775-.125.823-.182.738.02,1.109.121,1.081-.056,1.1.226.956.161.4.153.2-.008.1.145.065.214.416.1.464.036.323-.081.492v.944l.169,1.267.121.4.153.29.746,1.065.367.008.787-.242.173.161.016.21-.129.286-.161.161-.214.133-.8.278-.339.319-.186.355-.016.605-.129.27-.2.218-.222.117h-.533l-.726-.178-1.6-.137-1.674-.238-2.723-.169-1.521-.032L8.339,109.7l-1.408-.1-.758,0-2.09-.19-3.8-.157L.25,15.429l.613-.157.577-.254L13.6,11.043l.008-.052.674-.117.137-.141.407-.137,5.3-1.695L37.743,3.454l2.683-.9.9-.186L48.2.34Z"
                  transform="translate(-0.25 -0.34)" fill="#e3e9ef"/>
            <path id="UZ-SA"
                  d="M466.674,344.369l-.044.121-.645-.125-.391.085-1.343.464-.093.117v.077h0l-.4.093-.666-.129-1.549-.48-1.033-.44-1.8-.512-.355.02-.173.194.028.718-.044.141-.169.194-.331.085-1.565.1-.763-.06-.375-.214-.133-.194-.024-.234.186-.686.044-.508-.2-.533-.254-.27-3.458-.617-.48.024-.327.113-.335.383-.444.718-.331.387-1.469.629-.121,0-.278-.133-.662-.464-.666-.581-.472-.3-.254-.065-3.046.754-1.319.674-.892.557-.617.016-1.243-.315-.29-.1-.089-.085-.036-.6-1.118-1.876-1.331-1.537-1.739-.355-.016.133-.077.109-.577.432-.529.222-.6.073-7.081-.214-.278-.065h0l-.855-1.533-.327-.73-.069-.327.016-.254.472-.944.206-.589.069-.391-.545-2.106-.379-.585-.391-.327-.6-.617-.133-.311.032-.149.2-.141,3.49-1.178.4.2,1.15.355.238,0,.21-.121.286-.52.738-2.235.169-2.34-.02-.391.065-.282.141-.23.21-.113.407.069,2.211.835.4.625.186.42.843.46,2.171.928.492.081,3.595-.779.658-.307,1.408-1.327.174-.25.056-.452-.073-.182-.331-.028-.577.371-.323-.04-.081-.4.928-2.449.347-.541.355-2.469.069-.916-.149-.29-.218-.081-.1-.141.238-1.981.867-1.888.367-.436.448-.077.48.036.415.625.42.319.738.1.557-.044.948-.52.851-.775.234.109.391.452.751,1.073.508,1.4h0l3.143.371,1.86.04.387.88,0,.444-.335.738-.057.311.04,1.586.339,1.654.75.67.581,1.134-.028.327-.181.541-.1.065-.5.117-.04.141.141,1.5,2.352,1.586.855.323,1.941.161,4.789,1.021.085.1.432,2.4.032.411-.525.061-.621.153-.871.416-.278.218-.307.367-1.3,2.114-.04.149.008,1.678.085.383.262.387.416.424L465,340.383h0l.9,1.884.335.928.379.787.085.327Z"
                  transform="translate(-251.766 -186.82)" fill="#e3e9ef"/>
            <path id="UZ-SI"
                  d="M574.04,308.575l-.65.391-.52.133-.964-.27-.4.178-2.195.7h0l.407-2.586-.125-.274-2.877.662-.92.319-1.622.331-1.844.069-2.643-.125-.129-.02-.266-.391-.137-.363-.06-.387.081-.613,2-4.454.311-.807.061-.311-.065-.081-.133.04-.851.412-.065-.109.194-1.973.847-.218.75.04.137-.246.069-1.146h0l1.473,1.255.763-.2.771.633-.218.46,1.965.577.327-.452.968.073,1.739-.7-.339-.843-.972-.52-.456-1.327-1.324-1.828.351-3.006-.4-1.021.347-.363-.355-.561-1.46-.093,0-.524,1.985.125.129.242.952-.593-.008.1.125.036.081.484.27.1.323-.149.379.085.149.153-.057.133-.581.222-.077.141-.012.226.218.428.161-.133h0l1.961,2.227,1.4,1.4,1.985,1.791,1.9,1.578.25.032,1.223,1.707-.2,1.9-.347,2.146-.407,2,.008.428.057.25.2.424-.1,1.908h0l-.448-.141-1.037-.008-1.356.141Z"
                  transform="translate(-333.63 -172.426)" fill="#e3e9ef"/>
            <path id="UZ-SU"
                  d="M521.5,428.772l-.416,1.424-.056.5-.928.976-.662,1.251.028.633-.19.448.036.319-.141.359-1.009.472-1.634.282-.327.581-1.275,2.723-.464.67-.553.4-.924,1.2-.424.98-.512.98-.641.617-.48,1.565-.02,1.033.1,1.618-.226,2.687-.286.98-.274.178-.238-.448-.605-.484-.3-.089-.557.06-.169-.024-.347-.307-.4-.238-.246.036-.553.222-.27.218-.157.2-.282.036-.169-.262-.169-.553-.3-.291-.331-.161-.27.057-.23.153-.754.694-.545.186-.464.274-.508.044-.742.19-.387.416-.605.254-.218-.081-.347-.311-.069-.617-.113-.2-.311-.149-.149-.351-.109-.109-.391-.153-.182-.137-.282.061-.186-.048-.613-.343-.186-.286.145-.617-.129-.339-.7-.347-.549-.569-.173-.1-.779-.291-.758.053-1.444.641-.637-.077-.331.028-.9.307-.787-.2-.383,0-.444.149-.646-.149-.585.093-.472-.048-.722.028-.529.218-.161-.811.069-.266.173-.25.347-.254.456-.234,1.227-.367.121-.295,0-.3-.174-.444-1.84-2.235-.1-.6.226-2.267-.117-.617V438.7l.182-1.255.3-.722.294-.452.311-.307.218-.512.226-.294.92-.537.173-.161.1-.335-.012-.359-.218-.424h0l-.109-.363.42-1.723.173-.5,4.672-4.882,1.428-.746.738-.516.976-.98.182-.351.149-.565.065-.613.29-1.352,3.587-3.583.48-.9.327-.524.238-.258.182-.137.46-.133.577.028.4.129.569.577.218.073.541-1.735-.052-1.694-.06-.21-.153-.186-.412-.847-.218-1.267.024-.161.182-.339.27-.23.206-.1.347-.1,1.61-.093.4-.234.323-.331h0l.157.214.274.117.367-.129.25.1.42-.29.827-.077.545.331.593.056.424-.545.827-.028.42-.222.182,0,.448.468.411.1.742-.4.5.056.5.331.351.742.125.416,1.085.847.036.323-.057.5-.141.089.121.871-.508.262-.238.363-.416.129-1.009.161-.141.226,1.021,1.485-.145.271-.641.077-.512.492.169.6.351.783,0,.182-.189.226-.133,2.142.976,1.3.4.327-.149.452-.375.585-.1.408.182,0,.6-.262.186,0,.674.379.569.968.085.319.032.549.089.093.541.194.585.286.4.278.795,1.021.008.153.29.533.44.6,0,.319Z"
                  transform="translate(-290.315 -243.534)" fill="#e3e9ef"/>
            <path id="UZ-TK"
                  d="M612.664,266.066l.02-.23-.036-.057h-.1l-.121.1-.052.149-.3.093-.286.3-.282-.028-.145.266-.222-.109-.23.044-.646-.339-.081.008-.1.137-.331.149-.416-.085-.044-.073h-.057l-.484.533-.04.343-.181.5-.057.351-.048.589.036.137.375.089.117.085.133-.073.194.1.129.339.065.02.145-.093.069.1.278.052.23-.024,0-.194.436-.351.44.036.29.093-.065.166.174.379.149.1.254-.036.424-.424.153-.351-.028-.476-.153-.295-.117-.109.194-.307.137-.1-.052-.137.02-.194.117-.274.06-.048.161.02-.036-.266.113-.109.048-.194-.044-.129-.1-.056Z"
                  transform="translate(-363.052 -158.687)" fill="#e3e9ef"/>
            <path id="UZ-TO"
                  d="M633.85,212.706l-.06-.153-.262-.206-.319-.153-1.343-1.21-.379-.218-.706-.085-.492-.282-.186-.008-.347.085-.46.2-.5.468-.274.012-.379-.137-.169.016-.714.9-.412.278-.387.173-.476.359-.283.008-.428-.408-.21.065-.234.226-.27.295-.339.557-.331.266-.222.363-.4.315-.3.44-.061.508-.367.726-.444,1.206.02.081-.089.194-.3.1-.169-.008-.5-.456-.3-.085-.061-.254.044-.65-.222-.367-1.025-.561-1.085-.956-.149-.065-.278.056-.149.186-.121.855-.089.149-.391.351-.121.278-.637.387-.125.2.052.472.137.561-.032.436-.42.3-.388.125-.2.222-.218-.008-.468.222-.359.525-.432.363-.178.307-.3.811-.238.407-1.287.646-.541.387-.294.863-.129.121-.133.048-.145-.048-.064-.117.02-.226-.153-.27-.157-.028-.274.081-.1.125-.666,1.61-1.182.484-.484-.42-.3-.133h-.2l-.674.424-.823.133-.1-.052-.339.052-.125.081-.081.178-.214.214-.274.133-1.106.262-.21.093-.492.46-.117.206-.383.286-.524.561-.162.218-.2.629-.093.113-.3.153-.492.141-.153-.024-.133.048-.678.577-.27.444.008.21.133.218.472.307-.137.407-.165.085-.892-.141-.214.093-.335.016-.529.141-.19-.008-.4-.234-.226-.057-.444.052-.145-.048-.605.129-.464.278-.258.767-.177.2-.9.508-.46,1.146-.266.186-.206-.024-.238-.234-.117-.048-.206.064-.8,1.239-.077,1.093-.093.149-.561.472-.121.726-.085.056-.343-.061-.274.186-.262.347-.569.553-.617.815-.3.464-.194.444-.67.843-.29.674-.06.609-.069.141-.537.488-.738.29-.419.347h0l1.961,2.227,1.4,1.4,1.985,1.791,1.9,1.578.25.032,1.222,1.707-.2,1.9-.347,2.146-.407,2,0,.428.056.25.2.428-.1,1.908h0l1.029.089.258-.02.424.149.44-.036.311-.1.524.125.791.016.452.25.194-.161-.339-.855-.165-.169-.557-.109-.165-.169.1-.343-.141-.234.073-.25.706.1.335-.024.456-.432,0-.367.133-.222-.008-.488-.42-.335-.169-.2,0-.335-.117-.327-.161-.141.1-.343-.19-.077-.246-.835-.169-.2,0-.335.141-.165.016-.307-.266-.23-.541-.746-.028-.133.109-.258.63-.424.734-.1.351.069.121-.032.1-.109-.012-.073.161-.3.194-.093.1-.512-.226-.5-.137-.456.085-1.416.024-.129.133-.157.081-.383.742-1.045.662-.081.266.133,1.021.282.488.061.3.3.343.69.1.48.222.315.508.363.294.355.278.044.161.085.2.524.121.165.266.061.654-.044.375-.238.565-1.218.182-.161.286-.085.577.165.121-.012.379-.407.448-.266.173,0,.642.4.085,0,.476-.452.307-.2.819-.117.335-.145.428-.363.577-.226.96-.936.125-.177.113-.351.2-.238.238-.044.416.165.46.073.589-.379.355-.157.291-.412.662-.4.484-.012.274-.093.149-.145.206-.407,0-.145-.117-.375.06-.291.274-.331.012-.307.121-.214-.113-.516.044-.186.153-.113.162-.379.222-.242.524-.21.416.1h0l-.081-.169.061-.355-.012-.706-.1-.94-.266-.541-.77-1.057-.27-2.945,1.2-1.658.274-.779h0l-.2-.408-.194-.226-.343-.226-.488-.585-.472-.048-.2-.21-.254-.593-.161-.109-.529-.226-.432-.073-.391.024-.21.113-.331.04-.379-.1-.5.036-.254-.149-.064-.149-.069-.5.032-.795.113-.3.166-.234.512-.218.279-.048.516.044.67-.621.525.02.343-.161.609-.589.234-.363.121-.093.835-.456.218-.065.67-.456.27-.541.036-.892.1-.2.25-.238.5-.226.875-.613.133-.488.452-.323.149-.169.3-.617.424-.436.48-.23.262-.02.355.129.165,0,.069-.077.069-.331.089-.081.274.186.42.145.355,0,.174-.061.359-.363.121-.206.065-.734-.367-.637.137-.363.262-.266.048-.294.068-.117.242-.117h.323l.755.42.327.081h.311l.424-.21.52-.444.274-.121.71-.73.327-.125,1.081-1.033.436-.165.331-.012.513.125.161-.25.282-.218.182-.073.081-.113.04-.633.133-.182Zm-34.786,20.75-.145.186.036.266-.157-.02-.064.044-.117.274-.02.194.056.137-.137.1-.194.3.23.3.069.222v.359l-.06.222-.383.46-.133.093-.258.036-.145-.1-.174-.375.065-.165-.291-.093-.436-.036-.435.351-.008.194-.23.028-.278-.056-.069-.1-.145.093-.064-.02-.133-.339-.194-.1-.133.073L595,235.9l-.375-.093-.036-.137.048-.589.056-.351.182-.5.04-.339.484-.533h.057l.04.073.416.085.335-.149.105-.137.085-.008.646.339.23-.044.222.109.145-.266.286.028.282-.3.242-.044.153-.25.182-.044.016.286.206.186.02.242Z"
                  transform="translate(-349.218 -125.645)" fill="#e3e9ef"/>
            <path id="UZ-XO"
                  d="M226.148,262.536l-.508-1.154-.21-.3-.278-.246-.121-.327-.065-1.117-.186-.3-.1-.416-.492-.823-.036-.492.065-.476-.028-.8-.061-.194-.1-1.15.093-.654-.089-.161-.206-.085-.073-.291.008-.258-.117-.327-.3-.379-.593-.315-.23-.044-.182-.1-.121-.226.077-.379-.149-.424-.19-.351-.492-.294-.759-.8-.456-.137-.6-.407-.819-.972-.194-.121-.512-.052-.266-.093-.2-.137-.165-.153-.113-.383-.153-.29-.343-.258-.19,0-.524.23-.714-.056-.3-.089-.65-.363-.71-.117-.21.016-.19.125-.331.593.024,1.069-.182.323-.113.633-.173.367-.141.157-.2.133-.424.065-.061.056-.674.077-.133-.04-.533.02-.081-.052-.113.04-.282-.065-1.251-.6-.859-.9-.137-.06-.811.073-.533-.629-1.981-.089-.169.085-.42-.028-.88.129L201.9,247.7l-.678.125-1.586,0-1.92.121-.355-.02-1.049.173-.383-.024-.29-.1-1.307-.783-1.174-1.049-2.465-1.682-1.36-.779-.468-.42-.23-.5-.008-.278.065-.319.016-1.206.113-.75.153-.327.863-.807.1-.246v-.472L189.83,238l-.456-.815-.464-.617-.746-1.166-.153-.605.21-.5.226-.908.1-.057.125.008.363.2.4-.008.8.29.448.214.516.424.48-.012.315.254.331.109.1-.161.295,0,.1-.065.012-.178-.21-.282-.456-.359-.468-.533-.5-.23-.666-.149-.561-.351-.307-.343-.125-.29h0l1.077-2.11.767-.343,1.719-.561,2.13.452.157.194.065.234.016,1.065.165.988,1.243,2.175.153.19.266.262.282.125,2.086,1.949,1.352,1.573.633.609,3.32,2.949,2.4,1.832.569.234.871.145.3.117.286.246.811.916.149.351.1.468.908.581h.6l.29-.307.206-.759.472-.928.315-.355.561-.311.25-.081,1.226,0,3.611.831,1.42.75,1.243.771,3.228,3.555.605,1.118,1.84,2.99.109.089.262.077,1.029-.492h0l1.307,1.343,2.384,2.7.274.464-.012.621-.319,1.533-1.852,2.07-2.534,3.07h0Z"
                  transform="translate(-112.258 -136.663)" fill="#e3e9ef"/>
        </g>
        <g id="Path" transform="translate(910.009 519.226)" fill="#03e199">
            <path d="M 2.5 6 C 0.5700899958610535 6 -1 4.429910182952881 -1 2.5 C -1 0.5700899958610535 0.5700899958610535 -1 2.5 -1 C 4.429910182952881 -1 6 0.5700899958610535 6 2.5 C 6 4.429910182952881 4.429910182952881 6 2.5 6 Z"
                  stroke="none"/>
            <path d="M 2.5 0 C 1.119290113449097 0 0 1.119290113449097 0 2.5 C 0 3.880710124969482 1.119290113449097 5 2.5 5 C 3.880710124969482 5 5 3.880710124969482 5 2.5 C 5 1.119290113449097 3.880710124969482 0 2.5 0 M 2.5 -2 C 4.98130989074707 -2 7 0.01869010925292969 7 2.5 C 7 4.98130989074707 4.98130989074707 7 2.5 7 C 0.01869010925292969 7 -2 4.98130989074707 -2 2.5 C -2 0.01869010925292969 0.01869010925292969 -2 2.5 -2 Z"
                  stroke="none" fill="#fff"/>
        </g>
        <g id="Path-2" data-name="Path" transform="translate(884.406 547.23)" fill="#00c6e7">
            <path d="M 2.5 6 C 0.5700899958610535 6 -1 4.429910182952881 -1 2.5 C -1 0.5700899958610535 0.5700899958610535 -1 2.5 -1 C 4.429910182952881 -1 6 0.5700899958610535 6 2.5 C 6 4.429910182952881 4.429910182952881 6 2.5 6 Z"
                  stroke="none"/>
            <path d="M 2.5 0 C 1.119290113449097 0 0 1.119290113449097 0 2.5 C 0 3.880710124969482 1.119290113449097 5 2.5 5 C 3.880710124969482 5 5 3.880710124969482 5 2.5 C 5 1.119290113449097 3.880710124969482 0 2.5 0 M 2.5 -2 C 4.98130989074707 -2 7 0.01869010925292969 7 2.5 C 7 4.98130989074707 4.98130989074707 7 2.5 7 C 0.01869010925292969 7 -2 4.98130989074707 -2 2.5 C -2 0.01869010925292969 0.01869010925292969 -2 2.5 -2 Z"
                  stroke="none" fill="#fff"/>
        </g>
        <g id="Path-3" data-name="Path" transform="translate(839.6 570.433)" fill="#f7b100">
            <path d="M 2.5 6 C 0.5700899958610535 6 -1 4.429910182952881 -1 2.5 C -1 0.5700899958610535 0.5700899958610535 -1 2.5 -1 C 4.429910182952881 -1 6 0.5700899958610535 6 2.5 C 6 4.429910182952881 4.429910182952881 6 2.5 6 Z"
                  stroke="none"/>
            <path d="M 2.5 0 C 1.119290113449097 0 0 1.119290113449097 0 2.5 C 0 3.880710124969482 1.119290113449097 5 2.5 5 C 3.880710124969482 5 5 3.880710124969482 5 2.5 C 5 1.119290113449097 3.880710124969482 0 2.5 0 M 2.5 -2 C 4.98130989074707 -2 7 0.01869010925292969 7 2.5 C 7 4.98130989074707 4.98130989074707 7 2.5 7 C 0.01869010925292969 7 -2 4.98130989074707 -2 2.5 C -2 0.01869010925292969 0.01869010925292969 -2 2.5 -2 Z"
                  stroke="none" fill="#fff"/>
        </g>
        <g id="Path-4" data-name="Path" transform="translate(851.602 550.43)" fill="#00c6e7">
            <path d="M 2.5 6 C 0.5700899958610535 6 -1 4.429910182952881 -1 2.5 C -1 0.5700899958610535 0.5700899958610535 -1 2.5 -1 C 4.429910182952881 -1 6 0.5700899958610535 6 2.5 C 6 4.429910182952881 4.429910182952881 6 2.5 6 Z"
                  stroke="none"/>
            <path d="M 2.5 0 C 1.119290113449097 0 0 1.119290113449097 0 2.5 C 0 3.880710124969482 1.119290113449097 5 2.5 5 C 3.880710124969482 5 5 3.880710124969482 5 2.5 C 5 1.119290113449097 3.880710124969482 0 2.5 0 M 2.5 -2 C 4.98130989074707 -2 7 0.01869010925292969 7 2.5 C 7 4.98130989074707 4.98130989074707 7 2.5 7 C 0.01869010925292969 7 -2 4.98130989074707 -2 2.5 C -2 0.01869010925292969 0.01869010925292969 -2 2.5 -2 Z"
                  stroke="none" fill="#fff"/>
        </g>
        <g id="Path-5" data-name="Path" transform="translate(841.2 537.628)" fill="#00c5e6">
            <path d="M 2.5 6 C 0.5700899958610535 6 -1 4.429910182952881 -1 2.5 C -1 0.5700899958610535 0.5700899958610535 -1 2.5 -1 C 4.429910182952881 -1 6 0.5700899958610535 6 2.5 C 6 4.429910182952881 4.429910182952881 6 2.5 6 Z"
                  stroke="none"/>
            <path d="M 2.5 0 C 1.119290113449097 0 0 1.119290113449097 0 2.5 C 0 3.880710124969482 1.119290113449097 5 2.5 5 C 3.880710124969482 5 5 3.880710124969482 5 2.5 C 5 1.119290113449097 3.880710124969482 0 2.5 0 M 2.5 -2 C 4.98130989074707 -2 7 0.01869010925292969 7 2.5 C 7 4.98130989074707 4.98130989074707 7 2.5 7 C 0.01869010925292969 7 -2 4.98130989074707 -2 2.5 C -2 0.01869010925292969 0.01869010925292969 -2 2.5 -2 Z"
                  stroke="none" fill="#fff"/>
        </g>
        <g id="Path-6" data-name="Path" transform="translate(813.197 554.431)" fill="#f7b100">
            <path d="M 2.5 6 C 0.5700899958610535 6 -1 4.429910182952881 -1 2.5 C -1 0.5700899958610535 0.5700899958610535 -1 2.5 -1 C 4.429910182952881 -1 6 0.5700899958610535 6 2.5 C 6 4.429910182952881 4.429910182952881 6 2.5 6 Z"
                  stroke="none"/>
            <path d="M 2.5 0 C 1.119290113449097 0 0 1.119290113449097 0 2.5 C 0 3.880710124969482 1.119290113449097 5 2.5 5 C 3.880710124969482 5 5 3.880710124969482 5 2.5 C 5 1.119290113449097 3.880710124969482 0 2.5 0 M 2.5 -2 C 4.98130989074707 -2 7 0.01869010925292969 7 2.5 C 7 4.98130989074707 4.98130989074707 7 2.5 7 C 0.01869010925292969 7 -2 4.98130989074707 -2 2.5 C -2 0.01869010925292969 0.01869010925292969 -2 2.5 -2 Z"
                  stroke="none" fill="#fff"/>
        </g>
        <g id="Path-7" data-name="Path" transform="translate(748.388 511.225)" fill="#00c5e6">
            <path d="M 2.5 6 C 0.5700899958610535 6 -1 4.429910182952881 -1 2.5 C -1 0.5700899958610535 0.5700899958610535 -1 2.5 -1 C 4.429910182952881 -1 6 0.5700899958610535 6 2.5 C 6 4.429910182952881 4.429910182952881 6 2.5 6 Z"
                  stroke="none"/>
            <path d="M 2.5 0 C 1.119290113449097 0 0 1.119290113449097 0 2.5 C 0 3.880710124969482 1.119290113449097 5 2.5 5 C 3.880710124969482 5 5 3.880710124969482 5 2.5 C 5 1.119290113449097 3.880710124969482 0 2.5 0 M 2.5 -2 C 4.98130989074707 -2 7 0.01869010925292969 7 2.5 C 7 4.98130989074707 4.98130989074707 7 2.5 7 C 0.01869010925292969 7 -2 4.98130989074707 -2 2.5 C -2 0.01869010925292969 0.01869010925292969 -2 2.5 -2 Z"
                  stroke="none" fill="#fff"/>
        </g>
        <g id="Path-8" data-name="Path" transform="translate(739.587 489.622)" fill="#03e199">
            <path d="M 2.5 6 C 0.5700899958610535 6 -1 4.429910182952881 -1 2.5 C -1 0.5700899958610535 0.5700899958610535 -1 2.5 -1 C 4.429910182952881 -1 6 0.5700899958610535 6 2.5 C 6 4.429910182952881 4.429910182952881 6 2.5 6 Z"
                  stroke="none"/>
            <path d="M 2.5 0 C 1.119290113449097 0 0 1.119290113449097 0 2.5 C 0 3.880710124969482 1.119290113449097 5 2.5 5 C 3.880710124969482 5 5 3.880710124969482 5 2.5 C 5 1.119290113449097 3.880710124969482 0 2.5 0 M 2.5 -2 C 4.98130989074707 -2 7 0.01869010925292969 7 2.5 C 7 4.98130989074707 4.98130989074707 7 2.5 7 C 0.01869010925292969 7 -2 4.98130989074707 -2 2.5 C -2 0.01869010925292969 0.01869010925292969 -2 2.5 -2 Z"
                  stroke="none" fill="#fff"/>
        </g>
        <g id="Path-9" data-name="Path" transform="translate(877.205 583.234)" fill="#03e199">
            <path d="M 2.5 6 C 0.5700899958610535 6 -1 4.429910182952881 -1 2.5 C -1 0.5700899958610535 0.5700899958610535 -1 2.5 -1 C 4.429910182952881 -1 6 0.5700899958610535 6 2.5 C 6 4.429910182952881 4.429910182952881 6 2.5 6 Z"
                  stroke="none"/>
            <path d="M 2.5 0 C 1.119290113449097 0 0 1.119290113449097 0 2.5 C 0 3.880710124969482 1.119290113449097 5 2.5 5 C 3.880710124969482 5 5 3.880710124969482 5 2.5 C 5 1.119290113449097 3.880710124969482 0 2.5 0 M 2.5 -2 C 4.98130989074707 -2 7 0.01869010925292969 7 2.5 C 7 4.98130989074707 4.98130989074707 7 2.5 7 C 0.01869010925292969 7 -2 4.98130989074707 -2 2.5 C -2 0.01869010925292969 0.01869010925292969 -2 2.5 -2 Z"
                  stroke="none" fill="#fff"/>
        </g>
        <g id="Path-10" data-name="Path" transform="translate(952.415 524.027)" fill="#00c3f2">
            <path d="M 2.5 6 C 0.5700899958610535 6 -1 4.429910182952881 -1 2.5 C -1 0.5700899958610535 0.5700899958610535 -1 2.5 -1 C 4.429910182952881 -1 6 0.5700899958610535 6 2.5 C 6 4.429910182952881 4.429910182952881 6 2.5 6 Z"
                  stroke="none"/>
            <path d="M 2.5 0 C 1.119290113449097 0 0 1.119290113449097 0 2.5 C 0 3.880710124969482 1.119290113449097 5 2.5 5 C 3.880710124969482 5 5 3.880710124969482 5 2.5 C 5 1.119290113449097 3.880710124969482 0 2.5 0 M 2.5 -2 C 4.98130989074707 -2 7 0.01869010925292969 7 2.5 C 7 4.98130989074707 4.98130989074707 7 2.5 7 C 0.01869010925292969 7 -2 4.98130989074707 -2 2.5 C -2 0.01869010925292969 0.01869010925292969 -2 2.5 -2 Z"
                  stroke="none" fill="#fff"/>
        </g>
        <g id="Path-11" data-name="Path" transform="translate(966.016 528.827)" fill="#00c3f2">
            <path d="M 2.5 6 C 0.5700899958610535 6 -1 4.429910182952881 -1 2.5 C -1 0.5700899958610535 0.5700899958610535 -1 2.5 -1 C 4.429910182952881 -1 6 0.5700899958610535 6 2.5 C 6 4.429910182952881 4.429910182952881 6 2.5 6 Z"
                  stroke="none"/>
            <path d="M 2.5 0 C 1.119290113449097 0 0 1.119290113449097 0 2.5 C 0 3.880710124969482 1.119290113449097 5 2.5 5 C 3.880710124969482 5 5 3.880710124969482 5 2.5 C 5 1.119290113449097 3.880710124969482 0 2.5 0 M 2.5 -2 C 4.98130989074707 -2 7 0.01869010925292969 7 2.5 C 7 4.98130989074707 4.98130989074707 7 2.5 7 C 0.01869010925292969 7 -2 4.98130989074707 -2 2.5 C -2 0.01869010925292969 0.01869010925292969 -2 2.5 -2 Z"
                  stroke="none" fill="#fff"/>
        </g>
        <g id="Path-12" data-name="Path" transform="translate(940.413 534.428)" fill="#f7b100">
            <path d="M 2.5 6 C 0.5700899958610535 6 -1 4.429910182952881 -1 2.5 C -1 0.5700899958610535 0.5700899958610535 -1 2.5 -1 C 4.429910182952881 -1 6 0.5700899958610535 6 2.5 C 6 4.429910182952881 4.429910182952881 6 2.5 6 Z"
                  stroke="none"/>
            <path d="M 2.5 0 C 1.119290113449097 0 0 1.119290113449097 0 2.5 C 0 3.880710124969482 1.119290113449097 5 2.5 5 C 3.880710124969482 5 5 3.880710124969482 5 2.5 C 5 1.119290113449097 3.880710124969482 0 2.5 0 M 2.5 -2 C 4.98130989074707 -2 7 0.01869010925292969 7 2.5 C 7 4.98130989074707 4.98130989074707 7 2.5 7 C 0.01869010925292969 7 -2 4.98130989074707 -2 2.5 C -2 0.01869010925292969 0.01869010925292969 -2 2.5 -2 Z"
                  stroke="none" fill="#fff"/>
        </g>
    </g>
</svg>
